<?xml version="1.0" encoding="utf-8"?>
<!-- Generator: Adobe Illustrator 19.0.0, SVG Export Plug-In . SVG Version: 6.00 Build 0)  -->
<svg version="1.1" xmlns="http://www.w3.org/2000/svg" xmlns:xlink="http://www.w3.org/1999/xlink" x="0px" y="0px"
	 viewBox="0 0 1600 1400" style="enable-background:new 0 0 1600 1400;" xml:space="preserve">
<style type="text/css">
	.st0{fill:#F8B142;}
	.st1{fill:#EEE4E8;}
	.st2{fill:url(#XMLID_83_);}
	.st3{fill:url(#XMLID_84_);}
	.st4{fill:url(#XMLID_99_);}
	.st5{fill:url(#XMLID_101_);}
	.st6{fill:url(#XMLID_102_);}
	.st7{fill:url(#XMLID_104_);}
	.st8{fill:url(#XMLID_106_);}
	.st9{fill:url(#XMLID_107_);}
	.st10{fill:url(#XMLID_108_);}
	.st11{fill:url(#XMLID_109_);}
	.st12{fill:url(#XMLID_110_);}
	.st13{fill:url(#XMLID_111_);}
	.st14{fill:url(#XMLID_112_);}
	.st15{fill:url(#XMLID_113_);}
	.st16{fill:url(#XMLID_114_);}
	.st17{fill:url(#XMLID_115_);}
	.st18{fill:url(#XMLID_116_);}
	.st19{fill:url(#XMLID_117_);}
	.st20{fill:url(#XMLID_118_);}
	.st21{fill:url(#XMLID_119_);}
	.st22{fill:url(#XMLID_120_);}
	.st23{fill:url(#XMLID_121_);}
	.st24{fill:url(#XMLID_122_);}
	.st25{fill:url(#XMLID_123_);}
	.st26{fill:url(#XMLID_124_);}
	.st27{fill:url(#XMLID_125_);}
	.st28{fill:url(#XMLID_126_);}
	.st29{fill:url(#XMLID_127_);}
	.st30{fill:url(#XMLID_128_);}
	.st31{fill:url(#XMLID_132_);}
	.st32{fill:url(#XMLID_136_);}
	.st33{fill:url(#XMLID_137_);}
	.st34{fill:url(#XMLID_140_);}
	.st35{fill:url(#XMLID_143_);}
	.st36{fill:url(#XMLID_144_);}
	.st37{fill:url(#XMLID_145_);}
	.st38{fill:url(#XMLID_149_);}
	.st39{fill:url(#XMLID_150_);}
	.st40{fill:url(#XMLID_153_);}
	.st41{fill:url(#XMLID_154_);}
	.st42{fill:url(#XMLID_157_);}
	.st43{fill:url(#XMLID_169_);}
	.st44{fill:url(#XMLID_170_);}
	.st45{fill:url(#XMLID_171_);}
	.st46{fill:url(#XMLID_172_);}
	.st47{fill:url(#XMLID_173_);}
	.st48{fill:url(#XMLID_180_);}
	.st49{fill:url(#XMLID_181_);}
	.st50{fill:url(#XMLID_182_);}
	.st51{fill:url(#XMLID_183_);}
	.st52{fill:url(#XMLID_184_);}
	.st53{fill:url(#XMLID_185_);}
	.st54{fill:url(#XMLID_187_);}
	.st55{fill:url(#XMLID_188_);}
	.st56{fill:#154C63;}
	.st57{fill:url(#XMLID_189_);}
	.st58{fill:url(#XMLID_190_);}
	.st59{fill:url(#XMLID_191_);}
	.st60{fill:url(#XMLID_192_);}
	.st61{fill:url(#XMLID_196_);}
	.st62{fill:url(#XMLID_197_);}
	.st63{fill:url(#XMLID_198_);}
	.st64{fill:url(#XMLID_199_);}
	.st65{fill:url(#XMLID_200_);}
	.st66{fill:url(#XMLID_201_);}
	.st67{fill:url(#XMLID_202_);}
	.st68{fill:url(#XMLID_203_);}
	.st69{fill:url(#XMLID_204_);}
	.st70{fill:url(#XMLID_205_);}
	.st71{fill:url(#XMLID_206_);}
	.st72{fill:url(#XMLID_207_);}
	.st73{fill:url(#XMLID_208_);}
	.st74{fill:url(#XMLID_209_);}
	.st75{fill:url(#XMLID_210_);}
	.st76{fill:url(#XMLID_211_);}
	.st77{fill:url(#XMLID_212_);}
	.st78{fill:url(#XMLID_213_);}
	.st79{fill:#F8E3CA;}
	.st80{fill:url(#XMLID_214_);}
	.st81{fill:url(#XMLID_215_);}
	.st82{fill:url(#XMLID_216_);}
	.st83{fill:url(#XMLID_217_);}
	.st84{fill:url(#XMLID_218_);}
	.st85{fill:url(#XMLID_219_);}
	.st86{fill:url(#XMLID_220_);}
	.st87{fill:url(#XMLID_221_);}
	.st88{fill:url(#XMLID_222_);}
	.st89{fill:url(#XMLID_223_);}
	.st90{fill:url(#XMLID_224_);}
	.st91{fill:url(#XMLID_225_);}
	.st92{fill:url(#XMLID_226_);}
	.st93{fill:url(#XMLID_227_);}
	.st94{fill:url(#XMLID_228_);}
	.st95{fill:url(#XMLID_229_);}
	.st96{fill:url(#XMLID_230_);}
	.st97{fill:url(#XMLID_231_);}
	.st98{fill:url(#XMLID_232_);}
	.st99{fill:url(#XMLID_233_);}
	.st100{fill:url(#XMLID_234_);}
	.st101{fill:url(#XMLID_235_);}
	.st102{fill:url(#XMLID_236_);}
	.st103{fill:url(#XMLID_237_);}
	.st104{fill:url(#XMLID_238_);}
	.st105{fill:url(#XMLID_239_);}
	.st106{fill:url(#XMLID_240_);}
	.st107{fill:url(#XMLID_241_);}
	.st108{fill:url(#XMLID_242_);}
	.st109{fill:url(#XMLID_243_);}
	.st110{fill:url(#XMLID_244_);}
	.st111{fill:url(#XMLID_245_);}
	.st112{fill:url(#XMLID_246_);}
	.st113{fill:url(#XMLID_247_);}
	.st114{fill:url(#XMLID_248_);}
	.st115{fill:url(#XMLID_249_);}
	.st116{fill:url(#XMLID_250_);}
	.st117{fill:url(#XMLID_251_);}
	.st118{fill:url(#XMLID_252_);}
	.st119{fill:url(#XMLID_253_);}
	.st120{fill:url(#XMLID_254_);}
	.st121{fill:url(#XMLID_255_);}
	.st122{fill:url(#XMLID_256_);}
	.st123{fill:#A0DADE;}
	.st124{fill:url(#XMLID_257_);}
	.st125{fill:url(#XMLID_258_);}
	.st126{fill:url(#XMLID_259_);}
	.st127{fill:url(#XMLID_260_);}
	.st128{fill:url(#XMLID_261_);}
	.st129{fill:url(#XMLID_262_);}
</style>
<g id="ORNAMENT">
	<g id="XMLID_193_">
		<path id="XMLID_186_" class="st0" d="M561.7,1025.1c-16.5,0-29.9,13.4-29.9,29.9c0-16.5-13.4-29.9-29.9-29.9
			c16.5,0,29.9-13.4,29.9-29.9C531.8,1011.7,545.2,1025.1,561.7,1025.1z"/>
		<path id="XMLID_176_" class="st0" d="M285.9,936.5c-12.4,0-22.5,10.1-22.5,22.5c0-12.4-10.1-22.5-22.5-22.5
			c12.4,0,22.5-10.1,22.5-22.5C263.4,926.4,273.5,936.5,285.9,936.5z"/>
		<path id="XMLID_177_" class="st0" d="M334.5,687.6c-12.4,0-22.5,10.1-22.5,22.5c0-12.4-10.1-22.5-22.5-22.5
			c12.4,0,22.5-10.1,22.5-22.5C312,677.5,322,687.6,334.5,687.6z"/>
		<circle id="XMLID_168_" class="st1" cx="657.7" cy="993.8" r="10.9"/>
		<circle id="XMLID_174_" class="st1" cx="400" cy="1038" r="8.9"/>
		<circle id="XMLID_175_" class="st1" cx="278.6" cy="883.5" r="6.2"/>
		<circle id="XMLID_178_" class="st1" cx="356.5" cy="700.4" r="6.2"/>
	</g>
</g>
<g id="CLOUD">
	<g id="XMLID_380_">
		<linearGradient id="XMLID_83_" gradientUnits="userSpaceOnUse" x1="978.5516" y1="664.0204" x2="1323.2328" y2="664.0204">
			<stop  offset="0" style="stop-color:#FBECEA"/>
			<stop  offset="1" style="stop-color:#E1D9E3"/>
		</linearGradient>
		<path id="XMLID_179_" class="st2" d="M978.6,711.7h344.7l-115.8-13c0,0,32.3-14.4,16.1-28.5c-16.1-14-42.1,0-42.1,0
			s37.2-37,0.7-51.1c-36.5-14.1-83.9,29.4-83.9,29.4s3.9-23.5-15.1-22.5c-36.5,2-70.9,65.3-70.9,65.3L978.6,711.7z"/>
		<linearGradient id="XMLID_84_" gradientUnits="userSpaceOnUse" x1="816.0977" y1="407.6342" x2="1277.2518" y2="407.6342">
			<stop  offset="0" style="stop-color:#FBECEA"/>
			<stop  offset="1" style="stop-color:#E1D9E3"/>
		</linearGradient>
		<path id="XMLID_194_" class="st3" d="M816.1,472.5h461.2c0,0-37.6-10-81.8-18.4c-44.2-8.4-66-4.2-66-4.2s35.8-14.1,25.3-43.2
			c-10.5-29.1-73,5.3-73,5.3s42.1-33,5.6-61.1s-108.1,23.9-132,50.5c-23.9,26.7-29.5,37.9-29.5,37.9S836.9,459.3,816.1,472.5z"/>
		<linearGradient id="XMLID_99_" gradientUnits="userSpaceOnUse" x1="139.7192" y1="608.7485" x2="433.2711" y2="608.7485">
			<stop  offset="0" style="stop-color:#FBECEA"/>
			<stop  offset="1" style="stop-color:#E1D9E3"/>
		</linearGradient>
		<path id="XMLID_195_" class="st4" d="M139.7,650.3h293.6L367,631.9c0,0,13.2-14.3,5.1-19.3c-8.1-5-28.7-1.5-28.7-1.5
			s6.3-19.6-20.7-28.3c-27-8.7-42.3,17.4-42.3,17.4s15.4-26.7-4.7-32.7s-66.8,55.9-66.8,55.9L139.7,650.3z"/>
	</g>
</g>
<g id="ROCKET_FIRE">
	<g id="XMLID_381_">
		<linearGradient id="XMLID_101_" gradientUnits="userSpaceOnUse" x1="966.4431" y1="761.4479" x2="866.0574" y2="688.4401">
			<stop  offset="0.1385" style="stop-color:#F7B142"/>
			<stop  offset="1" style="stop-color:#EF794A"/>
		</linearGradient>
		<path id="XMLID_151_" class="st5" d="M1087.7,846.1l-93.4-50.6l-134.1-72.6c0,0,35.8-27.4,32.6-53.7l21.5,19.5L1087.7,846.1z"/>
		<linearGradient id="XMLID_102_" gradientUnits="userSpaceOnUse" x1="1012.8779" y1="816.726" x2="992.871" y2="774.6061">
			<stop  offset="0.1385" style="stop-color:#F7B142"/>
			<stop  offset="1" style="stop-color:#FAD58D"/>
		</linearGradient>
		<path id="XMLID_35_" class="st6" d="M924,704c0,0,122.7,104.2,122.7,109.5c0,5.3-25.8-19-51.6-35.3C969.3,761.9,924,704,924,704z"
			/>
		<linearGradient id="XMLID_104_" gradientUnits="userSpaceOnUse" x1="990.9525" y1="796.7671" x2="903.0272" y2="719.3718">
			<stop  offset="0.1385" style="stop-color:#F7B142"/>
			<stop  offset="1" style="stop-color:#EF794A"/>
		</linearGradient>
		<path id="XMLID_147_" class="st7" d="M994.3,795.6l-134.1-72.6c0,0,35.8-27.4,32.6-53.7l21.5,19.5c2.3,6.6,4.3,15.6,2.4,23.7
			c-3.5,14.7,30.2,44.2,67.4,75.1C987.4,790.2,990.8,792.9,994.3,795.6z"/>
	</g>
	<g id="XMLID_411_">
		<linearGradient id="XMLID_106_" gradientUnits="userSpaceOnUse" x1="892.7333" y1="807.7797" x2="792.3476" y2="734.7719">
			<stop  offset="0.1385" style="stop-color:#F7B142"/>
			<stop  offset="1" style="stop-color:#EF794A"/>
		</linearGradient>
		<path id="XMLID_413_" class="st8" d="M1014,892.5l-93.4-50.6l-134.1-72.6c0,0,35.8-27.4,32.6-53.7l21.5,19.5L1014,892.5z"/>
		<linearGradient id="XMLID_107_" gradientUnits="userSpaceOnUse" x1="917.2427" y1="843.0989" x2="829.3174" y2="765.7037">
			<stop  offset="0.1385" style="stop-color:#F7B142"/>
			<stop  offset="1" style="stop-color:#EF794A"/>
		</linearGradient>
		<path id="XMLID_412_" class="st9" d="M920.6,841.9l-134.1-72.6c0,0,35.8-27.4,32.6-53.7l21.5,19.5c2.3,6.6,4.3,15.6,2.4,23.7
			c-3.5,14.7,30.2,44.2,67.4,75.1C913.7,836.5,917.1,839.2,920.6,841.9z"/>
	</g>
</g>
<g id="ROCKET">
	<g id="XMLID_399_">
		<g id="XMLID_4_">
			<g id="XMLID_12_">
				<g id="XMLID_20_">
					<linearGradient id="XMLID_108_" gradientUnits="userSpaceOnUse" x1="686.9622" y1="456.6053" x2="543.7545" y2="801.9883">
						<stop  offset="0.1179" style="stop-color:#EE5A77"/>
						<stop  offset="1" style="stop-color:#801C56"/>
					</linearGradient>
					<path id="XMLID_25_" class="st10" d="M830.1,745.4c-0.9,1.9-2,3.8-3.1,5.7c-17.6,29.5-44.9,35.1-44.9,35.1s-19.4-11.4-48-28.5
						c-55.4-33.3-144.9-88.4-192.1-124.6c-4.4-3.3-8.5-6.5-12.6-9.6c-62.2-48-86.8-70.9-103.3-121.6c-6.7-20.8-7.2-35.4-2.3-45.3
						c7.9-15.9,29.4-19.5,60.5-16.5c41.4,4,72.5,13.7,132.9,54.2c13.3,8.9,28.1,19.3,44.7,31.5c53.2,39,104,87.3,137.4,121.2
						c24.4,24.7,39.5,41.7,39.5,41.7S843.8,717.6,830.1,745.4z"/>
					<linearGradient id="XMLID_109_" gradientUnits="userSpaceOnUse" x1="535.5673" y1="432.9354" x2="485.026" y2="647.7361">
						<stop  offset="0.1385" style="stop-color:#F7B142"/>
						<stop  offset="1" style="stop-color:#EF794A"/>
					</linearGradient>
					<path id="XMLID_24_" class="st11" d="M604.5,570.8c-18.4,32.5-50.4,46.7-75,52.8c-62.2-48-86.8-70.9-103.3-121.6
						c-17.6-54.1,7.7-66.7,58.3-61.8c41.4,4,72.5,13.7,132.9,54.2C622,510.9,623.4,537.4,604.5,570.8z"/>
					<linearGradient id="XMLID_110_" gradientUnits="userSpaceOnUse" x1="814.1111" y1="697.0861" x2="766.7263" y2="778.1669">
						<stop  offset="0.1385" style="stop-color:#F7B142"/>
						<stop  offset="1" style="stop-color:#EF794A"/>
					</linearGradient>
					<path id="XMLID_23_" class="st12" d="M830.1,745.4C830.1,745.4,830.1,745.4,830.1,745.4c-0.9,1.9-2,3.8-3.1,5.7
						c-17.6,29.5-44.9,35.1-44.9,35.1s-19.4-11.4-48-28.5c15.3-7.8,34.8-21.9,48-46.6c0.7-1.3,1.3-2.6,2-3.9
						c11.2-22.6,14.7-44.3,15.4-60.3c24.4,24.7,39.5,41.7,39.5,41.7S843.8,717.6,830.1,745.4z"/>
					<linearGradient id="XMLID_111_" gradientUnits="userSpaceOnUse" x1="845.7373" y1="600.9183" x2="824.6774" y2="703.5855">
						<stop  offset="0.1385" style="stop-color:#F7B142"/>
						<stop  offset="1" style="stop-color:#EF794A"/>
					</linearGradient>
					<path id="XMLID_22_" class="st13" d="M873,647.6l-8.6,10.3l-25.5,30.7L799.5,647l5.9-4.4l30.1-22.7c0,0,9.1,0,22.5,12.6
						C871.2,645.2,873,647.6,873,647.6z"/>
					<linearGradient id="XMLID_112_" gradientUnits="userSpaceOnUse" x1="840.3396" y1="570.5348" x2="834.0216" y2="632.1351">
						<stop  offset="0.1385" style="stop-color:#F7B142"/>
						<stop  offset="1" style="stop-color:#EF794A"/>
					</linearGradient>
					<path id="XMLID_21_" class="st14" d="M864.4,658l-25.5,30.7L799.5,647l5.9-4.4c10.7,6.1,26.1,12.9,42.6,14
						C854.5,657,860,657.5,864.4,658z"/>
				</g>
				<linearGradient id="XMLID_113_" gradientUnits="userSpaceOnUse" x1="719.3893" y1="571.4624" x2="645.6819" y2="683.0763">
					<stop  offset="0.1179" style="stop-color:#EE5A77"/>
					<stop  offset="1" style="stop-color:#801C56"/>
				</linearGradient>
				<path id="XMLID_19_" class="st15" d="M622.7,583.4C685,628.3,740.7,672,784,707.3c-0.6,1.3-1.3,2.6-2,3.9
					c-13.1,24.7-32.6,38.9-48,46.6c-55.4-33.3-144.9-88.4-192.1-124.6c-4.4-3.3-8.5-6.5-12.6-9.6c24.7-6.2,56.6-20.3,75-52.8
					c0.1-0.1,0.1-0.2,0.2-0.3C610.5,574.6,616.5,578.9,622.7,583.4z"/>
				<linearGradient id="XMLID_114_" gradientUnits="userSpaceOnUse" x1="529.2791" y1="432.7571" x2="508.2192" y2="542.2688">
					<stop  offset="0.1385" style="stop-color:#F7B142"/>
					<stop  offset="1" style="stop-color:#EF794A"/>
				</linearGradient>
				<path id="XMLID_18_" class="st16" d="M604.5,570.8c0.1-0.1,0.1-0.2,0.2-0.3c-103.9-73.8-160.8-104.1-180.7-113.8
					c0,0.1-0.1,0.1-0.1,0.2c-0.1,0.3-0.3,0.6-0.4,0.9c-0.1,0.1-0.1,0.3-0.2,0.4c-0.1,0.3-0.2,0.6-0.4,0.9c-0.1,0.2-0.1,0.3-0.2,0.5
					c-0.1,0.3-0.2,0.6-0.3,0.9c-0.1,0.2-0.1,0.4-0.2,0.5c-0.1,0.3-0.2,0.6-0.3,0.9c-0.1,0.2-0.1,0.4-0.2,0.6
					c-0.1,0.3-0.1,0.6-0.2,0.9c0,0.2-0.1,0.4-0.1,0.6c-0.1,0.3-0.1,0.6-0.2,1c0,0.2-0.1,0.4-0.1,0.6c-0.1,0.3-0.1,0.7-0.2,1
					c0,0.2-0.1,0.4-0.1,0.6c0,0.4-0.1,0.8-0.1,1.3c0,0.1,0,0.3,0,0.4c-0.1,1.1-0.1,2.3-0.2,3.5c0,0.1,0,0.3,0,0.4c0,0.5,0,1,0,1.5
					c0,0.2,0,0.4,0,0.6c0,0.4,0,0.8,0.1,1.3c0,0.2,0,0.5,0,0.7c0,0.4,0.1,0.8,0.1,1.2c0,0.3,0.1,0.6,0.1,0.8c0,0.4,0.1,0.8,0.1,1.1
					c0,0.3,0.1,0.6,0.1,1c0,0.4,0.1,0.7,0.1,1.1c0.1,0.4,0.1,0.7,0.2,1.1c0,0.3,0.1,0.6,0.2,0.9c0.1,0.3,0.1,0.6,0.2,0.9
					c0.2,1.2,0.4,2.4,0.7,3.6c0,0.1,0,0.2,0.1,0.3c0.9,4.1,2.1,8.5,3.6,13.2c16.5,50.8,41,73.7,103.3,121.6
					C554.1,617.4,586.1,603.3,604.5,570.8z"/>
				<linearGradient id="XMLID_115_" gradientUnits="userSpaceOnUse" x1="740.8679" y1="555.5768" x2="648.2041" y2="677.7244">
					<stop  offset="0.1179" style="stop-color:#EE5A77"/>
					<stop  offset="1" style="stop-color:#801C56"/>
				</linearGradient>
				<path id="XMLID_17_" class="st17" d="M763.5,736.5c-9.8,9.9-20.3,16.7-29.3,21.3c-55.4-33.3-144.9-88.4-192.1-124.6
					c-4.4-3.3-8.5-6.5-12.6-9.6c13.3-3.3,28.8-9,43.1-18.6c10.1,7.7,20.7,15.5,32,23.5C660.8,668.2,717.1,706,763.5,736.5z"/>
				<linearGradient id="XMLID_116_" gradientUnits="userSpaceOnUse" x1="551.1925" y1="401.5939" x2="517.4966" y2="483.7277">
					<stop  offset="0.1385" style="stop-color:#F7B142"/>
					<stop  offset="1" style="stop-color:#EF794A"/>
				</linearGradient>
				<path id="XMLID_16_" class="st18" d="M572.5,605c-14.3,9.6-29.8,15.3-43.1,18.6c-62.2-48-86.8-70.9-103.3-121.6
					c-1.5-4.7-2.7-9.1-3.6-13.2c0-0.1,0-0.2-0.1-0.3c-0.3-1.2-0.5-2.4-0.7-3.6c-0.1-0.3-0.1-0.6-0.2-0.9c-0.1-0.3-0.1-0.6-0.2-0.9
					c-0.1-0.4-0.1-0.7-0.2-1.1c-0.1-0.4-0.1-0.7-0.1-1.1c0-0.3-0.1-0.7-0.1-1c0-0.4-0.1-0.8-0.1-1.1c0-0.3-0.1-0.6-0.1-0.8
					c0-0.4-0.1-0.8-0.1-1.2c0-0.2,0-0.5,0-0.7c0-0.4,0-0.9-0.1-1.3c0-0.2,0-0.4,0-0.6c0-0.5,0-1,0-1.5c0-0.1,0-0.3,0-0.4
					c0-1.2,0.1-2.4,0.2-3.5c0-0.1,0-0.3,0-0.4c0-0.4,0.1-0.8,0.1-1.3c0-0.2,0.1-0.4,0.1-0.6c0-0.3,0.1-0.7,0.1-1
					c0-0.2,0.1-0.4,0.1-0.6c0.1-0.3,0.1-0.6,0.2-1c0-0.2,0.1-0.4,0.1-0.6c0.1-0.3,0.1-0.6,0.2-0.9c0-0.2,0.1-0.4,0.1-0.6
					c0.1-0.3,0.2-0.6,0.3-0.9c0.1-0.2,0.1-0.4,0.2-0.5c0.1-0.3,0.2-0.6,0.3-0.9c0.1-0.2,0.1-0.3,0.2-0.5
					C435.7,477,480.9,535.1,572.5,605z"/>
				<linearGradient id="XMLID_117_" gradientUnits="userSpaceOnUse" x1="827.2674" y1="665.5956" x2="765.6671" y2="783.0048">
					<stop  offset="0.1385" style="stop-color:#F7B142"/>
					<stop  offset="1" style="stop-color:#EF794A"/>
				</linearGradient>
				<path id="XMLID_15_" class="st19" d="M830.1,745.4C830.1,745.4,830.1,745.4,830.1,745.4c-0.9,1.9-2,3.8-3.1,5.7
					c-17.6,29.5-44.9,35.1-44.9,35.1s-19.4-11.4-48-28.5c15.3-7.8,34.8-21.9,48-46.6c0.7-1.3,1.3-2.6,2-3.9L830.1,745.4z"/>
			</g>
			<linearGradient id="XMLID_118_" gradientUnits="userSpaceOnUse" x1="702.9969" y1="599.3972" x2="648.7686" y2="680.4766">
				<stop  offset="0.1179" style="stop-color:#24245A"/>
				<stop  offset="1" style="stop-color:#171441"/>
			</linearGradient>
			<path id="XMLID_9_" class="st20" d="M732.6,600.2c-1.3,12.6-5.9,31.1-18.9,54.8c-25.3,46-71.6,51.1-71.6,51.1l-39-29.5
				c0,0,54.7-3,76.3-47.9c20.5-42.6,14.7-77.9,14.7-77.9l5.8-1.4l31.6,26.3l0.5,5l0.1,0.6C732.1,581.3,733.9,587.9,732.6,600.2z"/>
			<linearGradient id="XMLID_119_" gradientUnits="userSpaceOnUse" x1="570.1093" y1="500.0562" x2="465.1606" y2="440.0354">
				<stop  offset="0.1385" style="stop-color:#F7B142"/>
				<stop  offset="1" style="stop-color:#FAD58D"/>
			</linearGradient>
			<path id="XMLID_8_" class="st21" d="M452.1,444.4c-13.4,1.6-19,14.7,11.2,16.8c30.2,2.1,43.5-0.7,80,10.5
				c36.5,11.2,61.1,21.1,61.1,21.1S527.3,435.3,452.1,444.4z"/>
			<linearGradient id="XMLID_120_" gradientUnits="userSpaceOnUse" x1="681.0941" y1="548.7601" x2="628.4487" y2="518.6519">
				<stop  offset="0.1179" style="stop-color:#EE5A77"/>
				<stop  offset="1" style="stop-color:#E88486"/>
			</linearGradient>
			<path id="XMLID_7_" class="st22" d="M627.1,505.5c0,0,56.2,39.7,59,44.6c2.8,4.9,6,15.8-2.1,12.6s-57.9-41.8-57.9-41.8
				S628.9,518.5,627.1,505.5z"/>
			
				<linearGradient id="XMLID_121_" gradientUnits="userSpaceOnUse" x1="792.5579" y1="644.4869" x2="739.9125" y2="614.3787" gradientTransform="matrix(0.9948 0.1018 -0.1018 0.9948 63.6614 -82.3105)">
				<stop  offset="0.1179" style="stop-color:#EE5A77"/>
				<stop  offset="1" style="stop-color:#E88486"/>
			</linearGradient>
			<path id="XMLID_6_" class="st23" d="M737.2,591c0,0,51.8,45.2,54.1,50.3c2.3,5.2,4.3,16.3-3.4,12.4c-7.7-4-52-45.9-52-45.9
				S737.6,604.1,737.2,591z"/>
			<linearGradient id="XMLID_122_" gradientUnits="userSpaceOnUse" x1="717.3633" y1="610.8568" x2="714.9941" y2="550.5726">
				<stop  offset="0.1179" style="stop-color:#24245A"/>
				<stop  offset="1" style="stop-color:#00648D"/>
			</linearGradient>
			<path id="XMLID_5_" class="st24" d="M730.7,596.3c-13.9-12.4-29.8-27.4-29.8-27.4s1.6-3.5,1.2-15.8c0,0,14.5,12.6,28.1,24.9
				l0,0.5C730.3,578.5,732,584.7,730.7,596.3z"/>
		</g>
		<g id="XMLID_397_">
			<g id="XMLID_388_">
				<g id="XMLID_382_">
					<linearGradient id="XMLID_123_" gradientUnits="userSpaceOnUse" x1="753.5638" y1="410.8348" x2="610.3561" y2="756.2178">
						<stop  offset="0.1179" style="stop-color:#EE5A77"/>
						<stop  offset="1" style="stop-color:#801C56"/>
					</linearGradient>
					<path id="XMLID_148_" class="st25" d="M896.7,699.7c-0.9,1.9-2,3.8-3.1,5.7c-17.6,29.5-44.9,35.1-44.9,35.1s-19.4-11.4-48-28.5
						c-55.4-33.3-144.9-88.4-192.1-124.6c-4.4-3.3-8.5-6.5-12.6-9.6c-62.2-48-86.8-70.9-103.3-121.6c-6.7-20.8-7.2-35.4-2.3-45.3
						c7.9-15.9,29.4-19.5,60.5-16.5c41.4,4,72.5,13.7,132.9,54.2c13.3,8.9,28.1,19.3,44.7,31.5c53.2,39,104,87.3,137.4,121.2
						c24.4,24.7,39.5,41.7,39.5,41.7S910.5,671.8,896.7,699.7z"/>
					<linearGradient id="XMLID_124_" gradientUnits="userSpaceOnUse" x1="602.1689" y1="387.1649" x2="551.6276" y2="601.9656">
						<stop  offset="0.1385" style="stop-color:#F7B142"/>
						<stop  offset="1" style="stop-color:#EF794A"/>
					</linearGradient>
					<path id="XMLID_142_" class="st26" d="M671.1,525c-18.4,32.5-50.4,46.7-75,52.8c-62.2-48-86.8-70.9-103.3-121.6
						c-17.6-54.1,7.7-66.7,58.3-61.8c41.4,4,72.5,13.7,132.9,54.2C688.6,465.1,690,491.6,671.1,525z"/>
					<linearGradient id="XMLID_125_" gradientUnits="userSpaceOnUse" x1="880.7128" y1="651.3156" x2="833.3279" y2="732.3964">
						<stop  offset="0.1385" style="stop-color:#F7B142"/>
						<stop  offset="1" style="stop-color:#EF794A"/>
					</linearGradient>
					<path id="XMLID_13_" class="st27" d="M896.7,699.7C896.7,699.7,896.7,699.7,896.7,699.7c-0.9,1.9-2,3.8-3.1,5.7
						c-17.6,29.5-44.9,35.1-44.9,35.1s-19.4-11.4-48-28.5c15.3-7.8,34.8-21.9,48-46.6c0.7-1.3,1.3-2.6,2-3.9
						c11.2-22.6,14.7-44.3,15.4-60.3c24.4,24.7,39.5,41.7,39.5,41.7S910.5,671.8,896.7,699.7z"/>
					<linearGradient id="XMLID_126_" gradientUnits="userSpaceOnUse" x1="912.3389" y1="555.1478" x2="891.279" y2="657.815">
						<stop  offset="0.1385" style="stop-color:#F7B142"/>
						<stop  offset="1" style="stop-color:#EF794A"/>
					</linearGradient>
					<path id="XMLID_152_" class="st28" d="M939.6,601.9l-8.6,10.3l-25.5,30.7l-39.5-41.7l5.9-4.4l30.1-22.7c0,0,9.1,0,22.5,12.6
						C937.8,599.4,939.6,601.9,939.6,601.9z"/>
					<linearGradient id="XMLID_127_" gradientUnits="userSpaceOnUse" x1="906.9412" y1="524.7643" x2="900.6232" y2="586.3646">
						<stop  offset="0.1385" style="stop-color:#F7B142"/>
						<stop  offset="1" style="stop-color:#EF794A"/>
					</linearGradient>
					<path id="XMLID_146_" class="st29" d="M931,612.2l-25.5,30.7l-39.5-41.7l5.9-4.4c10.7,6.1,26.1,12.9,42.6,14
						C921.1,611.3,926.6,611.7,931,612.2z"/>
				</g>
				<linearGradient id="XMLID_128_" gradientUnits="userSpaceOnUse" x1="785.9909" y1="525.6919" x2="712.2836" y2="637.3058">
					<stop  offset="0.1179" style="stop-color:#EE5A77"/>
					<stop  offset="1" style="stop-color:#801C56"/>
				</linearGradient>
				<path id="XMLID_52_" class="st30" d="M689.3,537.6c62.3,44.9,118,88.6,161.3,123.9c-0.6,1.3-1.3,2.6-2,3.9
					c-13.1,24.7-32.6,38.9-48,46.6c-55.4-33.3-144.9-88.4-192.1-124.6c-4.4-3.3-8.5-6.5-12.6-9.6c24.7-6.2,56.6-20.3,75-52.8
					c0.1-0.1,0.1-0.2,0.2-0.3C677.1,528.8,683.2,533.2,689.3,537.6z"/>
				<linearGradient id="XMLID_132_" gradientUnits="userSpaceOnUse" x1="595.8808" y1="386.9866" x2="574.8208" y2="496.4983">
					<stop  offset="0.1385" style="stop-color:#F7B142"/>
					<stop  offset="1" style="stop-color:#EF794A"/>
				</linearGradient>
				<path id="XMLID_42_" class="st31" d="M671.1,525c0.1-0.1,0.1-0.2,0.2-0.3c-103.9-73.8-160.8-104.1-180.7-113.8
					c0,0.1-0.1,0.1-0.1,0.2c-0.1,0.3-0.3,0.6-0.4,0.9c-0.1,0.1-0.1,0.3-0.2,0.4c-0.1,0.3-0.2,0.6-0.4,0.9c-0.1,0.2-0.1,0.3-0.2,0.5
					c-0.1,0.3-0.2,0.6-0.3,0.9c-0.1,0.2-0.1,0.4-0.2,0.5c-0.1,0.3-0.2,0.6-0.3,0.9c-0.1,0.2-0.1,0.4-0.2,0.6
					c-0.1,0.3-0.1,0.6-0.2,0.9c0,0.2-0.1,0.4-0.1,0.6c-0.1,0.3-0.1,0.6-0.2,1c0,0.2-0.1,0.4-0.1,0.6c-0.1,0.3-0.1,0.7-0.2,1
					c0,0.2-0.1,0.4-0.1,0.6c0,0.4-0.1,0.8-0.1,1.3c0,0.1,0,0.3,0,0.4c-0.1,1.1-0.1,2.3-0.2,3.5c0,0.1,0,0.3,0,0.4c0,0.5,0,1,0,1.5
					c0,0.2,0,0.4,0,0.6c0,0.4,0,0.8,0.1,1.3c0,0.2,0,0.5,0,0.7c0,0.4,0.1,0.8,0.1,1.2c0,0.3,0.1,0.6,0.1,0.8c0,0.4,0.1,0.8,0.1,1.1
					c0,0.3,0.1,0.6,0.1,1c0,0.4,0.1,0.7,0.1,1.1c0.1,0.4,0.1,0.7,0.2,1.1c0,0.3,0.1,0.6,0.2,0.9c0.1,0.3,0.1,0.6,0.2,0.9
					c0.2,1.2,0.4,2.4,0.7,3.6c0,0.1,0,0.2,0.1,0.3c0.9,4.1,2.1,8.5,3.6,13.2c16.5,50.8,41,73.7,103.3,121.6
					C620.7,571.7,652.7,557.5,671.1,525z"/>
				<linearGradient id="XMLID_136_" gradientUnits="userSpaceOnUse" x1="807.4695" y1="509.8062" x2="714.8057" y2="631.9539">
					<stop  offset="0.1179" style="stop-color:#EE5A77"/>
					<stop  offset="1" style="stop-color:#801C56"/>
				</linearGradient>
				<path id="XMLID_48_" class="st32" d="M830.1,690.7c-9.8,9.9-20.3,16.7-29.3,21.3c-55.4-33.3-144.9-88.4-192.1-124.6
					c-4.4-3.3-8.5-6.5-12.6-9.6c13.3-3.3,28.8-9,43.1-18.6c10.1,7.7,20.7,15.5,32,23.5C727.4,622.5,783.7,660.3,830.1,690.7z"/>
				<linearGradient id="XMLID_137_" gradientUnits="userSpaceOnUse" x1="617.7941" y1="355.8234" x2="584.0982" y2="437.9572">
					<stop  offset="0.1385" style="stop-color:#F7B142"/>
					<stop  offset="1" style="stop-color:#EF794A"/>
				</linearGradient>
				<path id="XMLID_44_" class="st33" d="M639.1,559.2c-14.3,9.6-29.8,15.3-43.1,18.6c-62.2-48-86.8-70.9-103.3-121.6
					c-1.5-4.7-2.7-9.1-3.6-13.2c0-0.1,0-0.2-0.1-0.3c-0.3-1.2-0.5-2.4-0.7-3.6c-0.1-0.3-0.1-0.6-0.2-0.9c-0.1-0.3-0.1-0.6-0.2-0.9
					c-0.1-0.4-0.1-0.7-0.2-1.1c-0.1-0.4-0.1-0.7-0.1-1.1c0-0.3-0.1-0.7-0.1-1c0-0.4-0.1-0.8-0.1-1.1c0-0.3-0.1-0.6-0.1-0.8
					c0-0.4-0.1-0.8-0.1-1.2c0-0.2,0-0.5,0-0.7c0-0.4,0-0.9-0.1-1.3c0-0.2,0-0.4,0-0.6c0-0.5,0-1,0-1.5c0-0.1,0-0.3,0-0.4
					c0-1.2,0.1-2.4,0.2-3.5c0-0.1,0-0.3,0-0.4c0-0.4,0.1-0.8,0.1-1.3c0-0.2,0.1-0.4,0.1-0.6c0-0.3,0.1-0.7,0.1-1
					c0-0.2,0.1-0.4,0.1-0.6c0.1-0.3,0.1-0.6,0.2-1c0-0.2,0.1-0.4,0.1-0.6c0.1-0.3,0.1-0.6,0.2-0.9c0-0.2,0.1-0.4,0.1-0.6
					c0.1-0.3,0.2-0.6,0.3-0.9c0.1-0.2,0.1-0.4,0.2-0.5c0.1-0.3,0.2-0.6,0.3-0.9c0.1-0.2,0.1-0.3,0.2-0.5
					C502.3,431.2,547.5,489.3,639.1,559.2z"/>
				<linearGradient id="XMLID_140_" gradientUnits="userSpaceOnUse" x1="893.8691" y1="619.8251" x2="832.2687" y2="737.2343">
					<stop  offset="0.1385" style="stop-color:#F7B142"/>
					<stop  offset="1" style="stop-color:#EF794A"/>
				</linearGradient>
				<path id="XMLID_11_" class="st34" d="M896.7,699.7C896.7,699.7,896.7,699.7,896.7,699.7c-0.9,1.9-2,3.8-3.1,5.7
					c-17.6,29.5-44.9,35.1-44.9,35.1s-19.4-11.4-48-28.5c15.3-7.8,34.8-21.9,48-46.6c0.7-1.3,1.3-2.6,2-3.9L896.7,699.7z"/>
			</g>
			<linearGradient id="XMLID_143_" gradientUnits="userSpaceOnUse" x1="769.5986" y1="553.6267" x2="715.3702" y2="634.7061">
				<stop  offset="0.1179" style="stop-color:#24245A"/>
				<stop  offset="1" style="stop-color:#171441"/>
			</linearGradient>
			<path id="XMLID_14_" class="st35" d="M799.2,554.4c-1.3,12.6-5.9,31.1-18.9,54.8c-25.3,46-71.6,51.1-71.6,51.1l-39-29.5
				c0,0,54.7-3,76.3-47.9c20.5-42.6,14.7-77.9,14.7-77.9l5.8-1.4l31.6,26.3l0.5,5l0.1,0.6C798.7,535.5,800.5,542.1,799.2,554.4z"/>
			<linearGradient id="XMLID_144_" gradientUnits="userSpaceOnUse" x1="636.7109" y1="454.2857" x2="531.7622" y2="394.2649">
				<stop  offset="0.1385" style="stop-color:#F7B142"/>
				<stop  offset="1" style="stop-color:#FAD58D"/>
			</linearGradient>
			<path id="XMLID_414_" class="st36" d="M518.7,398.6c-13.4,1.6-19,14.7,11.2,16.8c30.2,2.1,43.5-0.7,80,10.5
				c36.5,11.2,61.1,21.1,61.1,21.1S593.9,389.5,518.7,398.6z"/>
			<linearGradient id="XMLID_145_" gradientUnits="userSpaceOnUse" x1="747.6957" y1="502.9896" x2="695.0504" y2="472.8813">
				<stop  offset="0.1179" style="stop-color:#EE5A77"/>
				<stop  offset="1" style="stop-color:#E88486"/>
			</linearGradient>
			<path id="XMLID_415_" class="st37" d="M693.7,459.7c0,0,56.2,39.7,59,44.6c2.8,4.9,6,15.8-2.1,12.6s-57.9-41.8-57.9-41.8
				S695.5,472.7,693.7,459.7z"/>
			
				<linearGradient id="XMLID_149_" gradientUnits="userSpaceOnUse" x1="854.1524" y1="592.1722" x2="801.507" y2="562.064" gradientTransform="matrix(0.9948 0.1018 -0.1018 0.9948 63.6614 -82.3105)">
				<stop  offset="0.1179" style="stop-color:#EE5A77"/>
				<stop  offset="1" style="stop-color:#E88486"/>
			</linearGradient>
			<path id="XMLID_417_" class="st38" d="M803.8,545.2c0,0,51.8,45.2,54.1,50.3c2.3,5.2,4.3,16.3-3.4,12.4c-7.7-4-52-45.9-52-45.9
				S804.2,558.3,803.8,545.2z"/>
			<linearGradient id="XMLID_150_" gradientUnits="userSpaceOnUse" x1="783.965" y1="565.0862" x2="781.5958" y2="504.8021">
				<stop  offset="0.1179" style="stop-color:#24245A"/>
				<stop  offset="1" style="stop-color:#00648D"/>
			</linearGradient>
			<path id="XMLID_10_" class="st39" d="M797.3,550.6c-13.9-12.4-29.8-27.4-29.8-27.4s1.6-3.5,1.2-15.8c0,0,14.5,12.6,28.1,24.9
				l0,0.5C796.9,532.8,798.6,539,797.3,550.6z"/>
			<linearGradient id="XMLID_153_" gradientUnits="userSpaceOnUse" x1="884.9799" y1="672.2269" x2="883.9269" y2="616.418">
				<stop  offset="0.1385" style="stop-color:#F7B142"/>
				<stop  offset="1" style="stop-color:#FAD58D"/>
			</linearGradient>
			<path id="XMLID_36_" class="st40" d="M870.4,608.5l31.4,33.9c0,0,2.1,8.2,1.8,17.2c-0.4,9-4,16.1-4,16.1s-4.7-19.7-17.5-27
				s-16.5-2.5-16.5-2.5s4.2-10.5,5.6-20.7S870.4,608.5,870.4,608.5z"/>
			<linearGradient id="XMLID_154_" gradientUnits="userSpaceOnUse" x1="903.4363" y1="594.3989" x2="903.1284" y2="578.0815">
				<stop  offset="0.1385" style="stop-color:#F7B142"/>
				<stop  offset="1" style="stop-color:#FAD58D"/>
			</linearGradient>
			<path id="XMLID_31_" class="st41" d="M902.9,575.7c2.1,0.2,10.7,5.4,16.8,9.3c6.1,3.9,10,10,10,10s-15.1-4.7-30.5-3
				c-15.4,1.8-22.1,1.9-22.1,1.9S900.8,575.5,902.9,575.7z"/>
		</g>
	</g>
</g>
<g id="RIGHT_LEG">
	<g id="XMLID_420_">
		<linearGradient id="XMLID_157_" gradientUnits="userSpaceOnUse" x1="1248.524" y1="806.9625" x2="757.4533" y2="938.02">
			<stop  offset="0" style="stop-color:#164545"/>
			<stop  offset="1" style="stop-color:#07435E"/>
		</linearGradient>
		<path id="XMLID_135_" class="st42" d="M760.2,940.6c0,0,80.7,30.2,181.1,48.4s109,14.6,125.9,14.7c33,0.3,53.1-35.1,37.7-59
			c-15.4-23.9-138.3-77.2-190.2-118.6c-41.5-33.1-68.8-61.8-68.8-61.8L760.2,940.6z"/>
		<g id="XMLID_418_">
			<linearGradient id="XMLID_169_" gradientUnits="userSpaceOnUse" x1="1246.536" y1="922.2614" x2="1300.2201" y2="922.2614">
				<stop  offset="0" style="stop-color:#FFFFFF"/>
				<stop  offset="1" style="stop-color:#E3EDF5"/>
			</linearGradient>
			<path id="XMLID_68_" class="st43" d="M1297.3,925.3l-14.4,5.5l-23.2,8.9c0,0-3.6-26.6-13.1-30.8l25.1-2.5l17-1.7
				c0,0,7.4-1,10.5,8.2C1302.3,922.2,1297.3,925.3,1297.3,925.3z"/>
			<g id="XMLID_50_">
				<linearGradient id="XMLID_170_" gradientUnits="userSpaceOnUse" x1="1275.8833" y1="880.1641" x2="1533.8625" y2="1085.4945">
					<stop  offset="0.1179" style="stop-color:#24245A"/>
					<stop  offset="1" style="stop-color:#171441"/>
				</linearGradient>
				<path id="XMLID_73_" class="st44" d="M1411.3,958.1c0,2.5-1.7,5.6-14,2.1c-12.3-3.5-107.1-31.2-107.1-31.2s7.7-3.1,3.7-13.9
					c-0.2-0.4-0.3-0.8-0.5-1.2c-4.3-9.4-13-8.1-13-8.1s6.7-9.1,16.5-16.5c9.8-7.4,18.6-8.8,18.6-8.8s24.2,12.3,50.5,34
					c12.5,10.4,23.4,20.2,31.3,27.9C1406.1,950.9,1411.3,956.8,1411.3,958.1z"/>
				
					<linearGradient id="XMLID_171_" gradientUnits="userSpaceOnUse" x1="1327.3441" y1="896.5655" x2="1294.3441" y2="887.8989" gradientTransform="matrix(0.8306 -0.5568 0.5568 0.8306 -277.7082 878.3082)">
					<stop  offset="0.1179" style="stop-color:#24245A"/>
					<stop  offset="1" style="stop-color:#436577"/>
				</linearGradient>
				<path id="XMLID_81_" class="st45" d="M1305.8,886.5c-12.7,4.7-17.3,12-10.7,11C1301.7,896.5,1323,880.2,1305.8,886.5z"/>
				<linearGradient id="XMLID_172_" gradientUnits="userSpaceOnUse" x1="1368.7377" y1="986.3038" x2="1339.6047" y2="916.806">
					<stop  offset="0.1179" style="stop-color:#24245A"/>
					<stop  offset="1" style="stop-color:#171441"/>
				</linearGradient>
				<path id="XMLID_71_" class="st46" d="M1411.3,958.1c0,2.5-1.7,5.6-14,2.1c-12.3-3.5-107.1-31.2-107.1-31.2s7.7-3.1,3.7-13.9
					c-0.2-0.4-0.3-0.8-0.5-1.2c8.6-2.7,22-4.4,39.3,1.8c21.6,7.7,47.7,18.5,64.7,26.8C1406.1,950.9,1411.3,956.8,1411.3,958.1z"/>
			</g>
			<linearGradient id="XMLID_173_" gradientUnits="userSpaceOnUse" x1="1229.0862" y1="891.813" x2="1290.511" y2="944.4628">
				<stop  offset="0" style="stop-color:#BCBEC0"/>
				<stop  offset="1" style="stop-color:#E3EDF5"/>
			</linearGradient>
			<path id="XMLID_65_" class="st47" d="M1282.8,930.9l-23.2,8.9c0,0-3.6-26.6-13.1-30.8l25.1-2.5c2.9,4.2,5.8,9.3,8.1,15.1
				C1281.1,925.2,1282.1,928.3,1282.8,930.9z"/>
		</g>
		<linearGradient id="XMLID_180_" gradientUnits="userSpaceOnUse" x1="1276.5001" y1="911.2745" x2="785.2609" y2="1042.377">
			<stop  offset="0" style="stop-color:#164545"/>
			<stop  offset="1" style="stop-color:#07435E"/>
		</linearGradient>
		<path id="XMLID_138_" class="st48" d="M1169.5,907.6c63-6.9,87-9.1,87-9.1s11.2,11.2,14.7,28.1s3.5,16.8,3.5,16.8
			s-172.7,52.5-189.5,57.4c-24.3,7-52.6,3-58.3-27.2C1021.4,943.4,1079.6,917.4,1169.5,907.6z"/>
	</g>
</g>
<g id="LEFT_LEG">
	<g id="XMLID_419_">
		<g id="XMLID_416_">
			<linearGradient id="XMLID_181_" gradientUnits="userSpaceOnUse" x1="1288.3716" y1="997.9445" x2="1336.3717" y2="997.9445">
				<stop  offset="0" style="stop-color:#FFFFFF"/>
				<stop  offset="1" style="stop-color:#E3EDF5"/>
			</linearGradient>
			<path id="XMLID_66_" class="st49" d="M1336,1008.1c-1.9,9.6-7.8,9.7-7.8,9.7l-14.5-2.3l-25.4-4.1c0,0,10.2-24.8,4.2-33.2
				l21.8,9.9l16.7,7.6C1331.1,995.7,1337.9,998.5,1336,1008.1z"/>
			<linearGradient id="XMLID_182_" gradientUnits="userSpaceOnUse" x1="1257.0431" y1="954.3408" x2="1331.1039" y2="1030.1565">
				<stop  offset="0" style="stop-color:#BCBEC0"/>
				<stop  offset="1" style="stop-color:#E3EDF5"/>
			</linearGradient>
			<path id="XMLID_64_" class="st50" d="M1314.9,1010.2c-0.3,1.9-0.7,3.7-1.1,5.3l-25.4-4.1c0,0,10.2-24.8,4.2-33.2l21.8,9.9
				C1315.4,993.2,1316.4,1001.3,1314.9,1010.2z"/>
			<g id="XMLID_47_">
				<linearGradient id="XMLID_183_" gradientUnits="userSpaceOnUse" x1="1387.2096" y1="1023.6334" x2="1326.8378" y2="1095.9392">
					<stop  offset="0.1179" style="stop-color:#24245A"/>
					<stop  offset="1" style="stop-color:#171441"/>
				</linearGradient>
				<path id="XMLID_70_" class="st51" d="M1410.4,1103.4c-1.2,2.1-4.3,4-13.2-5.2s-76.9-80.8-76.9-80.8s8.2,1.2,10.2-10.1
					c0.2-1,0.3-2,0.3-2.8c0.1-9.1-7.3-12-7.3-12s10.4-4.5,22.5-6c12.2-1.4,25.7,2.6,25.7,2.6s11.7,18.2,23.5,50.2
					c9,24.3,13.8,47.4,15,58.1C1410.6,1100.7,1410.7,1102.9,1410.4,1103.4z"/>
				<linearGradient id="XMLID_184_" gradientUnits="userSpaceOnUse" x1="1375.7798" y1="997.973" x2="1342.7798" y2="989.3064">
					<stop  offset="0.1179" style="stop-color:#24245A"/>
					<stop  offset="1" style="stop-color:#436577"/>
				</linearGradient>
				<path id="XMLID_79_" class="st52" d="M1359.2,990c-13.2-3.2-21,0.3-15,3.2C1350.2,996,1377,994.3,1359.2,990z"/>
				<linearGradient id="XMLID_185_" gradientUnits="userSpaceOnUse" x1="1305.4728" y1="977.273" x2="1364.4407" y2="1050.4563">
					<stop  offset="0.1179" style="stop-color:#24245A"/>
					<stop  offset="1" style="stop-color:#171441"/>
				</linearGradient>
				<path id="XMLID_67_" class="st53" d="M1410.4,1103.4c-1.2,2.1-4.3,4-13.2-5.2s-76.9-80.8-76.9-80.8s8.2,1.2,10.2-10.1
					c0.2-1,0.3-2,0.3-2.8c7.4,4.4,30.8,19.1,46.1,39.7c16.5,22.2,30.1,42.7,33.5,53.2C1410.6,1100.7,1410.7,1102.9,1410.4,1103.4z"
					/>
			</g>
		</g>
		<linearGradient id="XMLID_187_" gradientUnits="userSpaceOnUse" x1="1280.4399" y1="1072.4312" x2="891.3994" y2="696.0768">
			<stop  offset="0" style="stop-color:#1D5C5C"/>
			<stop  offset="1" style="stop-color:#085375"/>
		</linearGradient>
		<path id="XMLID_80_" class="st54" d="M1309.4,989.9c0,2.6-0.3,5.5-0.9,8.3c-2.4,11.8-8.6,23.8-8.6,23.8s-151.6-26.9-192.7-34.8
			c-41.1-7.9-42.6-6.3-55.8-10c-7.3-2.1-16-12.2-20.1-25c-3.3-10.2-3.7-22,1.7-32.9c12.1-24.7,41.6-37.4,72.1-24.2
			c30.5,13.2,106.9,36.9,136.4,48.4s60,20,60,20S1309.4,976.2,1309.4,989.9z"/>
		
			<linearGradient id="XMLID_188_" gradientUnits="userSpaceOnUse" x1="1097.082" y1="821.2662" x2="1290.1361" y2="1044.8458" gradientTransform="matrix(0.9725 -0.2328 0.2328 0.9725 -185.7554 305.3931)">
			<stop  offset="0" style="stop-color:#21677D"/>
			<stop  offset="1" style="stop-color:#1A576A"/>
		</linearGradient>
		<path id="XMLID_54_" class="st55" d="M1146,919.7c-7.4,0.7-13.8,4.7,11.9,16c21.9,9.7,117.6,29.2,103.6,20.8
			C1247.5,948.2,1160.5,918.3,1146,919.7z"/>
		<path id="XMLID_77_" class="st56" d="M1308.4,998.2c-2.4,11.8-8.6,23.8-8.6,23.8s-151.6-26.9-192.7-34.8
			c-41.1-7.9-42.6-6.3-55.8-10c-7.3-2.1-13.8-8.6-17.9-21.4c12.2,0.7,42.2,8.3,68.7,12.7c47.7,7.8,132.8,28,172.8,30
			C1289.6,999.2,1300.5,998.9,1308.4,998.2z"/>
		<g id="XMLID_141_">
			<linearGradient id="XMLID_189_" gradientUnits="userSpaceOnUse" x1="1202.89" y1="1154.3036" x2="814.4747" y2="778.554">
				<stop  offset="0" style="stop-color:#1D5C5C"/>
				<stop  offset="1" style="stop-color:#085375"/>
			</linearGradient>
			<path id="XMLID_78_" class="st57" d="M1139.3,950.4c-2.8,9.5-7.6,16.8-14.7,21.9c-11.5,8.4-29,11.2-53.8,8.6
				c-29.5-3.1-152.1-22.2-220.9-35c-8.1-1.5-15.4-2.9-21.8-4.2c-13-2.7-22-4.8-24.8-6.1c-15.8-7.4-15.8-7.4-15.8-7.4
				S848,777,851.5,740.5c0.1-0.7,17.8,9.6,44.1,25.2c66,39.2,184.2,116.5,210.6,127.8C1143,909.3,1145.6,929.3,1139.3,950.4z"/>
			<linearGradient id="XMLID_190_" gradientUnits="userSpaceOnUse" x1="1111.7813" y1="821.5129" x2="840.0389" y2="894.0358">
				<stop  offset="0" style="stop-color:#164545"/>
				<stop  offset="1" style="stop-color:#07435E"/>
			</linearGradient>
			<path id="XMLID_59_" class="st58" d="M830.3,830.3c0,0,136,53.7,176,66.3c40,12.7,34.3,13.7,13,9c-21.3-4.7-69.7-20.7-93-31.3
				c-23.3-10.7-100-36-100-36L830.3,830.3z"/>
			<linearGradient id="XMLID_191_" gradientUnits="userSpaceOnUse" x1="974.0777" y1="915" x2="974.0777" y2="1005.5">
				<stop  offset="0" style="stop-color:#1B5769"/>
				<stop  offset="1" style="stop-color:#07435E"/>
			</linearGradient>
			<path id="XMLID_75_" class="st59" d="M1124.6,972.3c-11.5,8.4-29,11.2-53.8,8.6c-29.5-3.1-152.1-22.2-220.9-35
				c-8.1-1.5-15.4-2.9-21.8-4.2c-10.6-16.6-7.2-41.4,54.8-27.4c0,0,94,30,168,44.7C1080.3,964.8,1105.2,968.9,1124.6,972.3z"/>
			<linearGradient id="XMLID_192_" gradientUnits="userSpaceOnUse" x1="985.025" y1="807.3643" x2="769.7509" y2="864.8168">
				<stop  offset="0" style="stop-color:#164545"/>
				<stop  offset="1" style="stop-color:#07435E"/>
			</linearGradient>
			<path id="XMLID_424_" class="st60" d="M895.6,765.7c-0.2,15-1.4,38-4.7,73.1c-5,51.9-25.3,87.2-40.9,107.2
				c-24.6-4.6-42.4-8.4-46.5-10.3c-15.8-7.4-15.8-7.4-15.8-7.4S848,777,851.5,740.5C851.6,739.8,869.3,750.1,895.6,765.7z"/>
			<linearGradient id="XMLID_196_" gradientUnits="userSpaceOnUse" x1="816.8188" y1="639.4851" x2="1145.3539" y2="1019.9681">
				<stop  offset="0" style="stop-color:#3F93B0"/>
				<stop  offset="1" style="stop-color:#1A576A"/>
			</linearGradient>
			<path id="XMLID_49_" class="st61" d="M910.6,786.2c-12.5-1.7-24.7,2.3,13.3,31.2c32.4,24.6,183.1,94.9,163.2,75.5
				C1067.2,873.5,935.1,789.6,910.6,786.2z"/>
		</g>
	</g>
</g>
<g id="RIGHT_ARM">
	<g id="XMLID_391_">
		
			<linearGradient id="XMLID_197_" gradientUnits="userSpaceOnUse" x1="473.1096" y1="683.7596" x2="507.8586" y2="1108.1176" gradientTransform="matrix(0.943 0.3327 -0.3327 0.943 263.9058 -99.2074)">
			<stop  offset="0" style="stop-color:#59AAC0"/>
			<stop  offset="1" style="stop-color:#68C2C4"/>
		</linearGradient>
		<path id="XMLID_393_" class="st62" d="M443.3,608.1c-33.6-0.1-41.4,46.2-23.6,97.1c17.8,50.9,59,120.6,74.2,132.9
			c18,14.5,38.2,9.8,44.7-14.8c6.4-24.5-13-99.9-33.7-146.7S458.2,608.1,443.3,608.1z"/>
		
			<linearGradient id="XMLID_198_" gradientUnits="userSpaceOnUse" x1="498.218" y1="673.2136" x2="532.967" y2="1097.5714" gradientTransform="matrix(0.867 0.4984 -0.4984 0.867 418.0493 -125.2007)">
			<stop  offset="0" style="stop-color:#59AAC0"/>
			<stop  offset="1" style="stop-color:#68C2C4"/>
		</linearGradient>
		<path id="XMLID_392_" class="st63" d="M480.1,783.6c-21.4,6.8-47.7,23.2-78.8,42.1c-30.1,18.3-30.8,17-30.8,17s6.3,7,9.8,16.5
			c5.8,15.7,7,24.2,7,24.2s43.9-4.1,87.5-18.2c35.7-11.5,63.8-19.3,63.5-47C538,790.5,516.8,771.9,480.1,783.6z"/>
		<linearGradient id="XMLID_199_" gradientUnits="userSpaceOnUse" x1="343.4304" y1="882.6902" x2="393.7494" y2="806.493">
			<stop  offset="0.1436" style="stop-color:#F7AFAA"/>
			<stop  offset="0.9333" style="stop-color:#E58880"/>
		</linearGradient>
		<path id="XMLID_431_" class="st64" d="M404.1,871.1l-21.4,8c0,0-5.9,4.8-15,9.9c-5.7,3.2-14.1,7.8-22.7,11.2c0,0,0,0,0,0h0
			c-5.3,0.5-7.5,0.8-9.7-2.4c-2.2-3.2-1.4-8.3-1.4-8.3s-3.5-1.6-4.2-6c-0.7-4.4,1.7-6.9,1.7-6.9s-4.8-2.4-6-6.1
			c-1.2-3.7,1-7.9,1-7.9s-2.9-3.2,2.2-8.6c1-1.1,9.5-1.4,9.5-1.4s-4.9-2.3-9.5-8.5c-4.6-6.2-7.4-12-1.8-15c5.5-3,7.3,3.3,16.6,9.9
			c9.3,6.6,21.9,15.8,21.9,15.8l27.3-12.4C412.3,847,404.1,871.1,404.1,871.1z"/>
	</g>
</g>
<g id="BODY">
	<g id="XMLID_1_">
		<g id="XMLID_443_">
			<linearGradient id="XMLID_200_" gradientUnits="userSpaceOnUse" x1="449.2619" y1="634.603" x2="1169.5143" y2="1029.4783">
				<stop  offset="0" style="stop-color:#59AAC0"/>
				<stop  offset="1" style="stop-color:#4F83C4"/>
			</linearGradient>
			<path id="XMLID_76_" class="st65" d="M857.1,860.9C829.7,948.3,756,965.1,756,965.1s-34.7-13.3-87-48.8c-0.8-0.6-1.7-1.2-2.5-1.7
				c-53.7-36.8-194.8-140-234.8-212.7c-40-72.7-17.3-114.4,20-136.9c111.6-67.4,194.3,8.4,267.5,82.7
				c58.4,59.3,129.5,73.2,129.5,73.2s8.8,12.9,14.3,36.6C868.7,781.6,870.9,816.8,857.1,860.9z"/>
			<linearGradient id="XMLID_201_" gradientUnits="userSpaceOnUse" x1="734.9003" y1="821.5236" x2="933.5677" y2="930.4421">
				<stop  offset="0" style="stop-color:#4D83C4"/>
				<stop  offset="1" style="stop-color:#4F83C4"/>
			</linearGradient>
			<path id="XMLID_74_" class="st66" d="M857.1,860.9C829.7,948.3,756,965.1,756,965.1s-34.7-13.3-87-48.8c15.8,0.2,32-0.6,46-3.3
				c46-9,65-39,52-54s-17-14,40-42c30.9-15.2,47.4-39.7,56-59.5C868.7,781.6,870.9,816.8,857.1,860.9z"/>
			<linearGradient id="XMLID_202_" gradientUnits="userSpaceOnUse" x1="543.9338" y1="571.4407" x2="626.0676" y2="713.2443">
				<stop  offset="0" style="stop-color:#59AAC0"/>
				<stop  offset="1" style="stop-color:#4F83C4"/>
			</linearGradient>
			<path id="XMLID_43_" class="st67" d="M620.5,565.7c0,0-26.7,9.8-26.7,47.7s36.5,101.1,80.7,116.5c44.2,15.4,70.9,0.7,76.5-20.4
				s5.2-31.4,5.2-31.4s1.8-0.2,6.1-0.2s20.4,1.4,26,17.5c5.6,16.1,19.7,48.4-18.3,77.2s-88.5,2.8-143.2-9.8s-86.3,5.6-77.9,26
				c8.4,20.4,59,58.3,70.2,77.2c11.2,19,9.8,23.9,9.8,23.9S512.4,772.8,505.4,770c-7-2.8-43.5-41.4-43.5-41.4l-7-23.9
				c0,0,12.6,44.9,66,44.2c53.4-0.7,59-16.1,57.6-27.4c-1.4-11.2-40-60.4-33-88.5c7-28.1,22.5-82.1,22.5-82.1l15.4-0.7L620.5,565.7z
				"/>
			<linearGradient id="XMLID_203_" gradientUnits="userSpaceOnUse" x1="434.2289" y1="557.6567" x2="520.0482" y2="621.8895">
				<stop  offset="0" style="stop-color:#59AAC0"/>
				<stop  offset="1" style="stop-color:#4F83C4"/>
			</linearGradient>
			<path id="XMLID_26_" class="st68" d="M421.2,604c-4.7,9-11.1,50.5,32.6,52.1c62,2.2,90.6-10,106.4-53.2
				c15.8-43.2-4.7-56.3-35.3-57.4S442.9,562.9,421.2,604z"/>
			<linearGradient id="XMLID_204_" gradientUnits="userSpaceOnUse" x1="814.9141" y1="819.8359" x2="558.4433" y2="591.8619">
				<stop  offset="0.1179" style="stop-color:#24245A"/>
				<stop  offset="1" style="stop-color:#171441"/>
			</linearGradient>
			<path id="XMLID_167_" class="st69" d="M550.2,541c0,0,7.4-7.6,30.5-1.3s36.1,13.7,36.6,19c0.5,5.3-1.8,3.2-1.8,3.2
				s-23.7,3.7-30.5,41.6s20.2,82.3,65.5,118.1c45.3,35.8,84.9,18.4,104.2-3.2c9.1-10.2,1.7-40.2,1.7-40.2l25.8,14.5
				c0,0,9.6,43.6-25,64.7c-43.9,26.7-113.2,22.5-172.2-47S531.2,572.1,550.2,541z"/>
			<linearGradient id="XMLID_205_" gradientUnits="userSpaceOnUse" x1="646.9897" y1="862.3113" x2="412.1713" y2="603.274">
				<stop  offset="0.1179" style="stop-color:#24245A"/>
				<stop  offset="1" style="stop-color:#171441"/>
			</linearGradient>
			<path id="XMLID_164_" class="st70" d="M454.2,562.2c0,0-22.5,55.5,3.5,113s83.5,126.4,130.6,167.1s55.5,57.6,55.5,57.6
				S537,814.2,481.5,764.4s-66-85.6-70.2-124.3C407.1,601.5,427.5,577.6,454.2,562.2z"/>
		</g>
		<g id="XMLID_395_">
			<linearGradient id="XMLID_206_" gradientUnits="userSpaceOnUse" x1="493.8724" y1="532.8923" x2="484.9225" y2="593.9623">
				<stop  offset="0" style="stop-color:#59AAC0"/>
				<stop  offset="1" style="stop-color:#68C2C4"/>
			</linearGradient>
			<path id="XMLID_56_" class="st71" d="M526.1,612.4c-1.5,3.1-3.4,6.3-5.6,9.4c-18.6,26.3-54.1,20.4-54.1,20.4
				s-24.9-24.6-28.1-39.7c-1-4.7-0.9-9.3,0.1-13.7c2.3-9.8,9.3-19,19.9-27.7c15.4-12.6,31.6-17.2,41.1-13.3
				c9.5,3.9,32.6,19.6,32.6,19.6S537.5,589.3,526.1,612.4z"/>
			<linearGradient id="XMLID_207_" gradientUnits="userSpaceOnUse" x1="497.1472" y1="595.2028" x2="348.6746" y2="695.7641">
				<stop  offset="0" style="stop-color:#59AAC0"/>
				<stop  offset="1" style="stop-color:#4F83C4"/>
			</linearGradient>
			<path id="XMLID_51_" class="st72" d="M526.1,612.4c-1.5,3.1-3.4,6.3-5.6,9.4c-18.6,26.3-54.1,20.4-54.1,20.4
				s-24.9-24.6-28.1-39.7c-1-4.7-0.9-9.3,0.1-13.7c2.3,3.6,9.8,12.6,26.2,11.2c16.7-1.4,21.1-3.8,22.2-4.6
				c-1.9,1.9-11.1,12.2,4.5,21.5C502.1,623.3,516.7,617.6,526.1,612.4z"/>
			<linearGradient id="XMLID_208_" gradientUnits="userSpaceOnUse" x1="480.6115" y1="637.6061" x2="464.8166" y2="569.6878">
				<stop  offset="0" style="stop-color:#2B5C74"/>
				<stop  offset="1" style="stop-color:#4F83C4"/>
			</linearGradient>
			<path id="XMLID_134_" class="st73" d="M485.4,553.1c0,0,14.7,4.6,14.4,22.8c-0.4,18.3-22.1,37.2-45.3,36.9
				c-23.2-0.4-19-21.4-9.5-37.9C454.5,558.3,471,549.9,485.4,553.1z"/>
		</g>
	</g>
</g>
<g id="BOX">
	<g id="XMLID_387_">
		<g id="XMLID_385_">
			<linearGradient id="XMLID_209_" gradientUnits="userSpaceOnUse" x1="527.2435" y1="831.6536" x2="718.3529" y2="1149.1163">
				<stop  offset="0.1385" style="stop-color:#F7B142"/>
				<stop  offset="1" style="stop-color:#EF794A"/>
			</linearGradient>
			<path id="XMLID_139_" class="st74" d="M718.8,746.1c0,0-6.3,59.7-15.4,125.7c-9.1,66-12.6,84.2-12.6,84.2H359
				c0,0-17.6-80-28.8-132.7c-11.2-52.6-14-77.2-14-77.2H718.8z"/>
			<linearGradient id="XMLID_210_" gradientUnits="userSpaceOnUse" x1="459.0968" y1="818.0052" x2="447.0968" y2="1043.0051">
				<stop  offset="0.1385" style="stop-color:#F7B142"/>
				<stop  offset="1" style="stop-color:#EF794A"/>
			</linearGradient>
			<path id="XMLID_105_" class="st75" d="M570.9,956H359c0,0-6-27.4-13.3-60.8c-2.6-11.9-5.3-24.5-8-36.9
				c18.5,11.9,47.5,25.9,89.9,35.3c84.7,18.7,141,20.8,141,20.8l1.6,29.6L570.9,956z"/>
			<linearGradient id="XMLID_211_" gradientUnits="userSpaceOnUse" x1="470.9502" y1="842.2929" x2="454.4502" y2="951.2929">
				<stop  offset="0.1385" style="stop-color:#F7B142"/>
				<stop  offset="1" style="stop-color:#EF794A"/>
			</linearGradient>
			<path id="XMLID_103_" class="st76" d="M570.9,956H359c0,0-6-27.4-13.3-60.8c18.5,10.7,45.2,22.3,81.9,30.4
				c84.7,18.7,142.6,18.4,142.6,18.4L570.9,956z"/>
			<linearGradient id="XMLID_212_" gradientUnits="userSpaceOnUse" x1="478.6" y1="656.7098" x2="736.2333" y2="957.867">
				<stop  offset="0.1385" style="stop-color:#F7B142"/>
				<stop  offset="1" style="stop-color:#EF794A"/>
			</linearGradient>
			<path id="XMLID_58_" class="st77" d="M718.8,746.1c0,0-1.9,18.1-5.1,45.3c-2.7,22.3-6.2,50.7-10.3,80.3
				c-9.1,66-12.6,84.2-12.6,84.2H570.9l-2.3-41.5l-9.2-168.4H718.8z"/>
			<linearGradient id="XMLID_213_" gradientUnits="userSpaceOnUse" x1="466.7298" y1="820.266" x2="380.0631" y2="679.5994">
				<stop  offset="0.1385" style="stop-color:#F7B142"/>
				<stop  offset="1" style="stop-color:#FAD58D"/>
			</linearGradient>
			<polygon id="XMLID_28_" class="st78" points="330.2,823.3 327,758.3 559.4,746.1 316.2,746.1 			"/>
		</g>
		<g id="XMLID_386_">
			<polygon id="XMLID_129_" class="st79" points="621.6,746.1 623,783.2 660.2,783.2 662.5,746.1 			"/>
			<polygon id="XMLID_130_" class="st79" points="543,798.1 492.8,798.1 489.3,761.2 539.5,761.2 			"/>
			<polygon id="XMLID_131_" class="st79" points="419.3,922.7 372.3,922.7 371,916 418,916 			"/>
			<polygon id="XMLID_133_" class="st79" points="422.5,938.9 375.4,938.9 374.1,932.2 421.2,932.2 			"/>
		</g>
		<linearGradient id="XMLID_214_" gradientUnits="userSpaceOnUse" x1="586.012" y1="749.1338" x2="654.9834" y2="901.8184">
			<stop  offset="0.1385" style="stop-color:#F7B142"/>
			<stop  offset="1" style="stop-color:#EF794A"/>
		</linearGradient>
		<path id="XMLID_60_" class="st80" d="M713.7,791.4c-2,17.2-4.6,38-7.6,60.2c-0.9,6.6-1.8,13.3-2.7,20.1
			c-9.1,66-12.6,84.2-12.6,84.2H570.9l-0.7-11.9l-1.6-29.6c26.1-11.5,62.3-36.5,77.9-51.5C676,834.6,690.7,814.6,713.7,791.4z"/>
		<linearGradient id="XMLID_215_" gradientUnits="userSpaceOnUse" x1="609.5001" y1="825.6384" x2="633.7191" y2="890.9243">
			<stop  offset="0.1385" style="stop-color:#F08148"/>
			<stop  offset="1" style="stop-color:#E86F47"/>
		</linearGradient>
		<path id="XMLID_57_" class="st81" d="M706.1,851.6c-0.9,6.6-1.8,13.3-2.7,20.1c-9.1,66-12.6,84.2-12.6,84.2H570.9l-0.7-11.9
			c30.1-12.7,66.3-33.5,83.1-46.7C675.6,879.8,691,865.5,706.1,851.6z"/>
	</g>
</g>
<g id="RIGHT_HAND">
	<g id="XMLID_390_">
		<linearGradient id="XMLID_216_" gradientUnits="userSpaceOnUse" x1="354.3178" y1="850.7513" x2="275.7127" y2="865.2007">
			<stop  offset="0.1436" style="stop-color:#F7AFAA"/>
			<stop  offset="0.9333" style="stop-color:#E58880"/>
		</linearGradient>
		<path id="XMLID_92_" class="st82" d="M356.9,847.2c-0.1,0.5-0.2,1-0.4,1.6c-1.3,4.6-8,8.4-16.4,12.1c-8.5,3.6-13.3,6.9-15.9,2.6
			c-0.1-0.2-0.3-0.5-0.4-0.7c-1.7-4.1,2.7-8.7,2.7-8.7c3.4-3.5,19-12.8,24.5-12.7C355.9,841.6,357.5,843.6,356.9,847.2z"/>
		<linearGradient id="XMLID_217_" gradientUnits="userSpaceOnUse" x1="350.702" y1="867.9155" x2="276.5101" y2="881.5536">
			<stop  offset="0.1436" style="stop-color:#F7AFAA"/>
			<stop  offset="0.9333" style="stop-color:#E58880"/>
		</linearGradient>
		<path id="XMLID_94_" class="st83" d="M357.8,868.9c-2.1,4.2-9.3,6.6-18.3,8.4c-9,1.8-14.3,4.1-16-0.7c-0.1-0.3-0.2-0.6-0.2-0.9
			c-0.8-4.3,4.3-7.9,4.3-7.9c3.9-2.7,21-8.7,26.3-7.4c3.2,0.8,4.8,2.1,5,4C359,865.8,358.7,867.2,357.8,868.9z"/>
		<linearGradient id="XMLID_218_" gradientUnits="userSpaceOnUse" x1="348.2459" y1="882.2254" x2="276.5519" y2="895.4045">
			<stop  offset="0.1436" style="stop-color:#F7AFAA"/>
			<stop  offset="0.9333" style="stop-color:#E58880"/>
		</linearGradient>
		<path id="XMLID_96_" class="st84" d="M361.8,881.9c-0.3,0.7-0.7,1.5-1.2,2.3c-2.6,3.9-10,5.4-19.1,6.1c-9.1,0.7-14.6,2.2-15.9-2.7
			c-0.1-0.3-0.1-0.5-0.1-0.8c-0.4-4.5,5.1-7.4,5.1-7.4c4.2-2.2,21.8-5.9,27-4C361.7,876.8,362.9,879.1,361.8,881.9z"/>
		<linearGradient id="XMLID_219_" gradientUnits="userSpaceOnUse" x1="346.2955" y1="894.3924" x2="277.3702" y2="907.0625">
			<stop  offset="0.1436" style="stop-color:#F7AFAA"/>
			<stop  offset="0.9333" style="stop-color:#E58880"/>
		</linearGradient>
		<path id="XMLID_98_" class="st85" d="M358.8,893.9c0.1,1.2-0.5,2.4-1.7,3.7c-2.5,2.8-8.5,3.1-15.8,2.5c-7.3-0.5-11.8,0-12.3-4
			c-0.1-0.5,0-1,0.1-1.5v0c0.8-3,4.7-4.4,4.7-4.4c3.6-1.3,17.9-2.1,21.8,0C357.8,891.3,358.7,892.6,358.8,893.9z"/>
		<linearGradient id="XMLID_220_" gradientUnits="userSpaceOnUse" x1="342.6382" y1="838.5359" x2="338.8882" y2="866.4109">
			<stop  offset="0.1436" style="stop-color:#F7AFAA"/>
			<stop  offset="0.9333" style="stop-color:#E58880"/>
		</linearGradient>
		<path id="XMLID_89_" class="st86" d="M356.9,847.2c-0.1,0.5-0.2,1-0.4,1.6c-1.3,4.6-8,8.4-16.4,12.1c-8.5,3.6-13.3,6.9-15.9,2.6
			c-0.1-0.2-0.3-0.5-0.4-0.7c1.9-0.2,5.6-1,12.3-3.6c11.1-4.3,18.1-9.6,20.4-11.8C356.7,847.4,356.8,847.3,356.9,847.2z"/>
		<linearGradient id="XMLID_221_" gradientUnits="userSpaceOnUse" x1="342.9468" y1="856.5944" x2="339.7218" y2="880.5671">
			<stop  offset="0.1436" style="stop-color:#F7AFAA"/>
			<stop  offset="0.9333" style="stop-color:#E58880"/>
		</linearGradient>
		<path id="XMLID_90_" class="st87" d="M357.8,868.9c-2.1,4.2-9.3,6.6-18.3,8.4c-9,1.8-14.3,4.1-16-0.7c-0.1-0.3-0.2-0.6-0.2-0.9
			c2.3,0.2,6.4,0,13.3-1.5c13.1-2.9,20.3-8,22.4-9.7C359,865.8,358.7,867.2,357.8,868.9z"/>
		<linearGradient id="XMLID_222_" gradientUnits="userSpaceOnUse" x1="344.8693" y1="875.5513" x2="342.631" y2="892.1888">
			<stop  offset="0.1436" style="stop-color:#F7AFAA"/>
			<stop  offset="0.9333" style="stop-color:#E58880"/>
		</linearGradient>
		<path id="XMLID_93_" class="st88" d="M361.8,881.9c-0.3,0.7-0.7,1.5-1.2,2.3c-2.6,3.9-10,5.4-19.1,6.1c-9.1,0.7-14.6,2.2-15.9-2.7
			c-0.1-0.3-0.1-0.5-0.1-0.8c2.7,0.4,7.2,0.6,14.6-0.3C349.4,885.2,357,883.4,361.8,881.9z"/>
		<linearGradient id="XMLID_223_" gradientUnits="userSpaceOnUse" x1="344.7039" y1="889.2286" x2="343.1781" y2="900.5701">
			<stop  offset="0.1436" style="stop-color:#F7AFAA"/>
			<stop  offset="0.9333" style="stop-color:#E58880"/>
		</linearGradient>
		<path id="XMLID_95_" class="st89" d="M358.8,893.9c0.1,1.2-0.5,2.4-1.7,3.7c-2.5,2.8-8.5,3.1-15.8,2.5c-7.3-0.5-11.8,0-12.3-4
			c-0.1-0.5,0-1,0.1-1.5c2.4,1.6,7,3.2,15.3,2.7C350.3,896.9,355,895.5,358.8,893.9z"/>
	</g>
</g>
<g id="LEFT_ARM">
	<g id="XMLID_444_">
		<linearGradient id="XMLID_224_" gradientUnits="userSpaceOnUse" x1="633.8887" y1="844.5983" x2="632.3929" y2="902.7488">
			<stop  offset="0" style="stop-color:#1D5C5C"/>
			<stop  offset="1" style="stop-color:#085375"/>
		</linearGradient>
		<path id="XMLID_3_" class="st90" d="M615.7,841.7c0,0-2.5,5.7,5.7,18.5s30.4,11,30.4,11s-3.7-13.8-10.9-21.8
			C633.7,841.2,620.2,840,615.7,841.7z"/>
		<g id="XMLID_449_">
			<linearGradient id="XMLID_225_" gradientUnits="userSpaceOnUse" x1="675.634" y1="724.5853" x2="667.3608" y2="1046.2041">
				<stop  offset="0" style="stop-color:#59AAC0"/>
				<stop  offset="1" style="stop-color:#68C2C4"/>
			</linearGradient>
			<path id="XMLID_61_" class="st91" d="M748.3,771.4c-5.9,1.6-12.9,1.2-20.3-1.4c-18.4-6.5-79.7-44.6-113.4-86.7
				c-8.9-11.1-15.5-23.1-19.9-35c-12.3-33.3-7-65.6,16.4-73.8c14-4.9,34.1-6,69.2,31.2c35.1,37.2,82.8,110.2,84.9,135.5
				C766.5,757.8,759.5,768.3,748.3,771.4z"/>
			<linearGradient id="XMLID_226_" gradientUnits="userSpaceOnUse" x1="638.3137" y1="663.7148" x2="639.3137" y2="605.2148">
				<stop  offset="0" style="stop-color:#59AAC0"/>
				<stop  offset="1" style="stop-color:#68C2C4"/>
			</linearGradient>
			<path id="XMLID_72_" class="st92" d="M619.5,599c-23,1.9-6.5,27,16,43.5s40,12.5,32-2S638,597.5,619.5,599z"/>
			<linearGradient id="XMLID_227_" gradientUnits="userSpaceOnUse" x1="674.9384" y1="659.3435" x2="763.3902" y2="521.7519">
				<stop  offset="0.1233" style="stop-color:#57AAC0"/>
				<stop  offset="1" style="stop-color:#801C56"/>
			</linearGradient>
			<path id="XMLID_446_" class="st93" d="M611.8,575.2c0,0,32.1,7.4,74.2,57.9c42.1,50.5,69.2,83.8,69.2,83.8s-31.9-67-67.7-104.9
				S631.2,565.7,611.8,575.2z"/>
			<linearGradient id="XMLID_228_" gradientUnits="userSpaceOnUse" x1="657.5052" y1="631.5071" x2="689.0269" y2="808.3356">
				<stop  offset="0" style="stop-color:#59AAC0"/>
				<stop  offset="1" style="stop-color:#4F83C4"/>
			</linearGradient>
			<path id="XMLID_55_" class="st94" d="M748.3,771.4c-5.9,1.6-12.9,1.2-20.3-1.4c-18.4-6.5-79.7-44.6-113.4-86.7
				c-8.9-11.1-15.5-23.1-19.9-35c8.7,11.4,27.9,34.1,56.1,54.3c39.7,28.4,44.6,30.7,60,40C718.6,747.3,740.1,761.3,748.3,771.4z"/>
		</g>
		<linearGradient id="XMLID_229_" gradientUnits="userSpaceOnUse" x1="576.4658" y1="905.1898" x2="650.0591" y2="793.7486">
			<stop  offset="0.1436" style="stop-color:#F7AFAA"/>
			<stop  offset="0.9333" style="stop-color:#E58880"/>
		</linearGradient>
		<path id="XMLID_91_" class="st95" d="M654.4,860.9L631.8,881l-1.6,1.4c0,0-3.4,7.1-9.8,15.8c-6.3,8.7-12.5,17.7-23.8,24
			s-24.9,11.2-25.7,8.9c0-0.1-0.1-0.2-0.1-0.3c-0.6-2.2,0.5-3.9,10.9-8.7c10.6-4.9,14.6-13.2,14.7-13.4c-0.1,0-0.5,0.3-1.2,0.8
			c-3.6,2.2-14.2,7.2-23.1,8.7c-9.8,1.7-20.6,3.7-21.1,0.7c-0.1-0.3,0-0.6,0.1-0.9c1.6-3.9,0.8-2.9,12.6-6.8
			c9.9-3.3,20.6-10.5,23.8-12.8c0.5-0.3,0.8-0.6,0.9-0.7c-0.6,0.3-10.5,4.9-26,9.7c-13.6,4.2-21,3-22.3,0.6
			c-0.2-0.4-0.3-0.9-0.1-1.4c1.1-3.2,7.1-5,18.4-8.4c11.3-3.4,19.2-11.6,19.2-11.6s-0.1,0-0.3,0.1c-1.8,0.8-11.4,4.8-22.1,6.4
			c-10.1,1.6-16.7,0.7-17.2-2.3c-0.1-0.5,0-1,0.2-1.7c1.8-4.2,4.6-1.1,18.6-5.3c10.5-3.2,20.6-8.3,25-10.7c0,0,2.3-1.3,2.3-1.3
			s-3.8-0.5-10.8-4.4c-5.8-3.2-12.3-6.2-12.1-10.1c0-0.8,0.4-1.6,1-2.5c3.9-5.3,9.7,1.5,21.3,3.6c11.6,2.1,23.4,2.2,23.4,2.2
			l11.2-10.4l12.6-11.7c16.6-3.3,21.6,13.1,23,19.6C654.3,859.9,654.4,860.9,654.4,860.9z"/>
		<linearGradient id="XMLID_230_" gradientUnits="userSpaceOnUse" x1="550.5183" y1="842.7922" x2="585.5305" y2="871.2231">
			<stop  offset="0.1436" style="stop-color:#F7AFAA"/>
			<stop  offset="0.9333" style="stop-color:#E58880"/>
		</linearGradient>
		<path id="XMLID_37_" class="st96" d="M591,867.5c0,0-1.7,1.7-4.7,3.4c-0.8,0.4-1.9,1.2-1.9,1.2s-3.8-0.5-10.8-4.4
			c-5.8-3.2-12.3-6.2-12.1-10.1c2.9,1.4,10.5,4.8,18.3,7C589.8,867.6,591,867.5,591,867.5z"/>
		<linearGradient id="XMLID_231_" gradientUnits="userSpaceOnUse" x1="534.1592" y1="868.54" x2="567.9366" y2="895.9682">
			<stop  offset="0.1436" style="stop-color:#F7AFAA"/>
			<stop  offset="0.9333" style="stop-color:#E58880"/>
		</linearGradient>
		<path id="XMLID_86_" class="st97" d="M578.8,885.3c0.1,0.4-0.4,0.9-1.3,1.6c-1.8,0.8-11.4,4.8-22.1,6.4
			c-10.1,1.6-16.7,0.7-17.2-2.3c3.2,0.3,14.2,0.9,25.4-2.9C577,883.6,578.5,883.9,578.8,885.3z"/>
		<linearGradient id="XMLID_232_" gradientUnits="userSpaceOnUse" x1="538.2193" y1="879.9277" x2="576.0736" y2="910.6666">
			<stop  offset="0.1436" style="stop-color:#F7AFAA"/>
			<stop  offset="0.9333" style="stop-color:#E58880"/>
		</linearGradient>
		<path id="XMLID_85_" class="st98" d="M589,897.6c-0.4,0.3-0.8,0.5-1.3,0.8c0.6-0.4,0.9-0.7,0.9-0.7s-10,4.7-26.1,9.7
			c-13.6,4.2-21,3-22.3,0.6c3.2,0.1,9.4-0.1,18.1-2.6c13.2-3.8,23.4-8.5,27-9.9C589,894.3,592.5,895.3,589,897.6z"/>
		<linearGradient id="XMLID_233_" gradientUnits="userSpaceOnUse" x1="550.1282" y1="892.0863" x2="584.7277" y2="920.1821">
			<stop  offset="0.1436" style="stop-color:#F7AFAA"/>
			<stop  offset="0.9333" style="stop-color:#E58880"/>
		</linearGradient>
		<path id="XMLID_87_" class="st99" d="M596.4,908.8c-3.6,2.2-16.2,8.4-25.1,9.9c-9.8,1.7-19.7,3.2-20.2,0.2
			c4.3-0.2,20.5-1.3,30.7-6.8c11.8-6.4,15.3-9.4,15.9-7.9C598,905.2,597.8,906.9,596.4,908.8z"/>
		<linearGradient id="XMLID_234_" gradientUnits="userSpaceOnUse" x1="595.1902" y1="880.8048" x2="620.069" y2="901.0072">
			<stop  offset="0.1436" style="stop-color:#F7AFAA"/>
			<stop  offset="0.9333" style="stop-color:#E58880"/>
		</linearGradient>
		<path id="XMLID_88_" class="st100" d="M654.4,860.9L631.8,881l-1.6,1.4c0,0-3.4,7.1-9.8,15.8c-6.3,8.7-12.5,17.7-23.8,24
			s-24.9,11.2-25.7,8.9c0-0.1-0.1-0.2-0.1-0.3c3.8-0.9,9.7-2.7,16.4-6.3c11.9-6.4,22.8-19.1,29.9-28.2c7.1-9.1,8.4-16.5,13.8-19.9
			c4.6-2.9,18.9-14.7,23.1-18.2C654.3,859.9,654.4,860.9,654.4,860.9z"/>
		<linearGradient id="XMLID_235_" gradientUnits="userSpaceOnUse" x1="547.7193" y1="802.9789" x2="638.277" y2="861.2448">
			<stop  offset="0.1436" style="stop-color:#F7AFAA"/>
			<stop  offset="0.9333" style="stop-color:#E58880"/>
		</linearGradient>
		<path id="XMLID_33_" class="st101" d="M654.4,860.9L631.8,881c-0.2-4.3-0.9-9.2-2.9-14c-3.3-8.5-7.6-13.7-10.6-16.6l12.6-11.7
			C651.5,834.7,654.4,860.9,654.4,860.9z"/>
		<g id="XMLID_27_">
			<linearGradient id="XMLID_236_" gradientUnits="userSpaceOnUse" x1="692.8487" y1="724.1873" x2="684.4246" y2="1051.672">
				<stop  offset="0" style="stop-color:#59AAC0"/>
				<stop  offset="1" style="stop-color:#68C2C4"/>
			</linearGradient>
			<path id="XMLID_34_" class="st102" d="M766.3,747.6c-1.2,16.8-14.8,33.8-32.7,53.6c-30.8,34-81.9,70-81.9,70s-4.6-9.7-11.1-16.2
				c-1.5-1.5-3.1-2.8-4.7-3.9c-7.5-5.1-20.3-9.4-20.3-9.4s5.1-12.8,24.7-42.1c21.3-31.9,37.9-56.8,53.1-73.4
				c26-28.4,53.7-22.8,67.7,1.1C765.3,734,766.8,740.8,766.3,747.6z"/>
			<linearGradient id="XMLID_237_" gradientUnits="userSpaceOnUse" x1="693.5645" y1="756.7352" x2="715.1509" y2="877.8299">
				<stop  offset="0" style="stop-color:#59AAC0"/>
				<stop  offset="1" style="stop-color:#4F83C4"/>
			</linearGradient>
			<path id="XMLID_32_" class="st103" d="M766.3,747.6c-1.2,16.8-14.8,33.8-32.7,53.6c-30.8,34-81.9,70-81.9,70s-4.6-9.7-11.1-16.2
				c-1.5-1.5-3.1-2.8-4.7-3.9c12.8-7.4,34.8-20.7,64.2-40.2C745.5,780.8,764.1,751.3,766.3,747.6z"/>
		</g>
	</g>
</g>
<g id="HEAD">
	<g id="XMLID_389_">
		
			<linearGradient id="XMLID_238_" gradientUnits="userSpaceOnUse" x1="503.0184" y1="629.8324" x2="469.849" y2="589.8185" gradientTransform="matrix(0.9941 0.1081 -0.1081 0.9941 65.9543 -48.5753)">
			<stop  offset="0.1436" style="stop-color:#F7AFAA"/>
			<stop  offset="0.9333" style="stop-color:#E58880"/>
		</linearGradient>
		<path id="XMLID_155_" class="st104" d="M492.9,581.5l-37.1-38.6l-29.1,24l39.9,35.8c0,0,8.7,7.3,18.8-0.4
			C495.4,594.5,496,586.1,492.9,581.5z"/>
		<g id="XMLID_156_">
			<linearGradient id="XMLID_239_" gradientUnits="userSpaceOnUse" x1="414.9807" y1="526.3878" x2="455.6966" y2="537.6198">
				<stop  offset="0.1436" style="stop-color:#F7AFAA"/>
				<stop  offset="0.9333" style="stop-color:#E58880"/>
			</linearGradient>
			<path id="XMLID_398_" class="st105" d="M461.8,596.1c-5.6,6.3-10.3,9.8-15.2,10.8c-5.5,1.2-11.5-0.8-19.9-5.2
				c-15.8-8.4-30.2-19.6-53.4-57.6c-18-29.4-13.5-54.4-4.1-68.4c2.7-4.1,5.9-7.2,9-9.2c42.9-27.9,82.5-3.5,97.9,36.9
				C491.6,543.8,476.5,579.7,461.8,596.1z"/>
			<linearGradient id="XMLID_240_" gradientUnits="userSpaceOnUse" x1="393.5891" y1="583.9684" x2="429.0415" y2="487.7904">
				<stop  offset="0.1436" style="stop-color:#F7AFAA"/>
				<stop  offset="0.9333" style="stop-color:#E58880"/>
			</linearGradient>
			<path id="XMLID_100_" class="st106" d="M446.6,607c-5.5,1.2-11.5-0.8-19.9-5.2c-15.6-8.3-29.5-16.1-52.2-53
				c-0.2-0.4-0.5-0.7-0.7-1.1c-18-29.4-13.9-57.8-4.5-71.8c39.1-19,74,4.4,88.5,41.5c0.1,0.2,0.2,0.4,0.2,0.6
				C472.4,555.6,460.2,589.3,446.6,607z"/>
			<linearGradient id="XMLID_241_" gradientUnits="userSpaceOnUse" x1="402.9031" y1="559.2637" x2="407.9031" y2="521.5137">
				<stop  offset="0.1436" style="stop-color:#F7AFAA"/>
				<stop  offset="0.9333" style="stop-color:#E58880"/>
			</linearGradient>
			<path id="XMLID_97_" class="st107" d="M379.2,519.2c0,0,0.6,8.1-2.2,21.1c-0.8,3.7-1.7,6.5-2.5,8.5c-0.2-0.4-0.5-0.7-0.7-1.1
				c-18-29.4-13.9-57.8-4.5-71.8c39.1-19,74,4.4,88.5,41.5c-6.8,3.9-19.2,11.5-38.6,11.2C383.7,528,379.2,519.2,379.2,519.2z"/>
			<linearGradient id="XMLID_242_" gradientUnits="userSpaceOnUse" x1="339.2553" y1="437.5767" x2="475.7308" y2="566.5627">
				<stop  offset="0.1179" style="stop-color:#24245A"/>
				<stop  offset="1" style="stop-color:#171441"/>
			</linearGradient>
			<path id="XMLID_163_" class="st108" d="M374.3,551c0,0,1.3-18.4,0-30.3c-1.3-11.8-1.3-11.8-1.3-11.8s25.2,13.9,61.8,10.2
				s47.3-16.9,47.3-16.9s-18.3-43.3-51.3-51.8s-68.5,24-68.5,24s-13.5,14.9-14.1,38.6C347.7,536.8,374.3,551,374.3,551z"/>
		</g>
		<g id="XMLID_384_">
			<linearGradient id="XMLID_243_" gradientUnits="userSpaceOnUse" x1="358.9397" y1="557.8332" x2="388.4236" y2="608.728">
				<stop  offset="0" style="stop-color:#9B4125"/>
				<stop  offset="1" style="stop-color:#642B1D"/>
			</linearGradient>
			<path id="XMLID_158_" class="st109" d="M343,530.6c0,0-5.2,17.4,3.4,33.4c13.2,24.5,42.5,17.8,42.5,17.8s-8.6,0.1-21-14.4
				C355.6,553,343,530.6,343,530.6z"/>
			<linearGradient id="XMLID_244_" gradientUnits="userSpaceOnUse" x1="349.3812" y1="569.2552" x2="348.2599" y2="550.7548">
				<stop  offset="0.1179" style="stop-color:#9A4225"/>
				<stop  offset="1" style="stop-color:#CD7F29"/>
			</linearGradient>
			<path id="XMLID_447_" class="st110" d="M342.2,538.8c0,0,5.3,13.2,9.8,20.9s4.2,13.3,0.2,10.5S340.3,552.9,342.2,538.8z"/>
			<linearGradient id="XMLID_245_" gradientUnits="userSpaceOnUse" x1="394.9091" y1="485.8235" x2="453.5257" y2="560.937">
				<stop  offset="0" style="stop-color:#9B4125"/>
				<stop  offset="1" style="stop-color:#642B1D"/>
			</linearGradient>
			<path id="XMLID_45_" class="st111" d="M485.9,544.5c-1.7,3.3-3,6.1-3.8,7.8c0,0,0,0,0,0c-0.6,1.4-1,2.2-1,2.2
				s-10.8-32.9-18.6-46.6c-7.9-13.7-22.6-19.7-30.3-19.5c-7.6,0.3-41.3,12.1-54.2,20.3c-12.9,8.2-13.1,18.4-6.7,31.5
				c12.2,25,25.9,37.7,30.1,44c0,0-4.1,0.2-10.2-1.2c-9.4-2.1-23.5-7.9-34.8-23.9c-18.7-26.3-31.3-81.1,15.5-111.4
				c46.9-30.3,87.4-9.5,104.5,20.8C493.6,499,489.1,538.5,485.9,544.5z"/>
			<linearGradient id="XMLID_246_" gradientUnits="userSpaceOnUse" x1="445.6905" y1="550.214" x2="380.7935" y2="501.5413">
				<stop  offset="0" style="stop-color:#9B4125"/>
				<stop  offset="1" style="stop-color:#642B1D"/>
			</linearGradient>
			<path id="XMLID_40_" class="st112" d="M482.1,552.4C482.1,552.4,482.1,552.4,482.1,552.4c-0.6,1.4-1,2.2-1,2.2
				s-10.8-32.9-18.6-46.6c-7.9-13.7-22.6-19.7-30.3-19.5c-7.6,0.3-41.3,12.1-54.2,20.3c-12.9,8.2-13.1,18.4-6.7,31.5
				c12.2,25,25.9,37.7,30.1,44c0,0-22.2-11.3-36-48.1c-9-24.2,9.7-40,33.9-48.5s45.6-13,60.4,7.7
				C472.4,513.3,480.2,544.1,482.1,552.4z"/>
			<linearGradient id="XMLID_247_" gradientUnits="userSpaceOnUse" x1="485.7859" y1="503.989" x2="500.1765" y2="560.4981">
				<stop  offset="0" style="stop-color:#9B4125"/>
				<stop  offset="1" style="stop-color:#642B1D"/>
			</linearGradient>
			<path id="XMLID_41_" class="st113" d="M502.5,514.2c0.5,29.4-15.7,31.1-17.3,31.2c-0.1,0-0.1,0-0.1,0s-12.6-16.2-12.8-42.1
				c-0.2-26,6.1-29.1,6.1-29.1s0.7,0.3,1.9,0.9C486.1,478.1,502.1,488.7,502.5,514.2z"/>
			<linearGradient id="XMLID_248_" gradientUnits="userSpaceOnUse" x1="342.2012" y1="507.0226" x2="473.2994" y2="507.0226">
				<stop  offset="0.1179" style="stop-color:#24245A"/>
				<stop  offset="1" style="stop-color:#171441"/>
			</linearGradient>
			<path id="XMLID_160_" class="st114" d="M347.7,543c0,0-3.4-15.8,20.5-36.1s59.5-23.7,76.6-19c17.1,4.7,27.1,11.6,27.1,11.6
				l1.3-14c0,0-26.1-24-76.9-10.3S342.2,529,342.2,529S344.8,539,347.7,543z"/>
			<linearGradient id="XMLID_249_" gradientUnits="userSpaceOnUse" x1="371.6976" y1="496.7813" x2="369.5458" y2="461.2755">
				<stop  offset="0.1179" style="stop-color:#9A4225"/>
				<stop  offset="1" style="stop-color:#CD7F29"/>
			</linearGradient>
			<path id="XMLID_445_" class="st115" d="M398.9,435.9c0,0-19.2,8.7-36.4,29c-17.2,20.4-21.4,37.6-21.4,37.6s-1.9-22.1,12.7-38.6
				C374.1,441,398.9,435.9,398.9,435.9z"/>
			
				<linearGradient id="XMLID_250_" gradientUnits="userSpaceOnUse" x1="446.1924" y1="501.1623" x2="444.3679" y2="471.0585" gradientTransform="matrix(0.196 0.9806 -0.9806 0.196 825.9655 -76.0092)">
				<stop  offset="0.1179" style="stop-color:#9A4225"/>
				<stop  offset="1" style="stop-color:#CD7F29"/>
			</linearGradient>
			<path id="XMLID_448_" class="st116" d="M476.8,471.3c0,0-11.6-13.2-30.7-23.8c-19.2-10.6-33.7-11.2-33.7-11.2s17-3.4,33.2,4.5
				C468.6,452,476.8,471.3,476.8,471.3z"/>
			<linearGradient id="XMLID_251_" gradientUnits="userSpaceOnUse" x1="519.5497" y1="490.9972" x2="450.0519" y2="528.6418">
				<stop  offset="0.1179" style="stop-color:#9A4225"/>
				<stop  offset="1" style="stop-color:#CD7F29"/>
			</linearGradient>
			<path id="XMLID_38_" class="st117" d="M502.5,514.2c0.5,29.4-15.7,31.1-17.3,31.2c-3.9-4.8-6.4-12.7-6.4-12.7s9.3,6.8,15.3-3.2
				c5.9-10,0.8-36.5-6.3-42.3s-9.7,5.3-9.7,5.3s-0.9-4.1-0.1-9.5c0.5-3.3,1.7-6.3,2.5-8C486.1,478.1,502.1,488.7,502.5,514.2z"/>
			<g id="XMLID_62_">
				<g id="XMLID_383_">
					<linearGradient id="XMLID_252_" gradientUnits="userSpaceOnUse" x1="320.634" y1="421.5788" x2="353.2769" y2="483.1791">
						<stop  offset="0" style="stop-color:#59AAC0"/>
						<stop  offset="1" style="stop-color:#4F83C4"/>
					</linearGradient>
					<ellipse id="XMLID_166_" class="st118" cx="364.7" cy="504.8" rx="21.5" ry="20"/>
					<linearGradient id="XMLID_253_" gradientUnits="userSpaceOnUse" x1="354.3867" y1="492.5093" x2="396.5067" y2="569.3781">
						<stop  offset="0" style="stop-color:#59AAC0"/>
						<stop  offset="1" style="stop-color:#4F83C4"/>
					</linearGradient>
					<ellipse id="XMLID_165_" class="st119" cx="360.8" cy="504.2" rx="16.8" ry="15.6"/>
					
						<linearGradient id="XMLID_254_" gradientUnits="userSpaceOnUse" x1="378.891" y1="486.9865" x2="383.805" y2="518.5765" gradientTransform="matrix(0.9881 -0.1536 0.1536 0.9881 -74.4346 67.4827)">
						<stop  offset="0" style="stop-color:#4E90C4"/>
						<stop  offset="1" style="stop-color:#191644"/>
					</linearGradient>
					<path id="XMLID_39_" class="st120" d="M376.2,496c0,0,3,2.9,2.3,10.2c-0.7,7.3-3,9.1-3,9.1s4.2-4.8,6.1-5.1s1.9,1.8,1.9,1.8
						s3.5-4.9,2-10.9c-1.5-6-4.6-8.3-4.6-8.3s0.5,2.2-0.8,3.3S376.2,496,376.2,496z"/>
				</g>
				<linearGradient id="XMLID_255_" gradientUnits="userSpaceOnUse" x1="358.8215" y1="487.1458" x2="356.7894" y2="501.0116">
					<stop  offset="0" style="stop-color:#59AAC0"/>
					<stop  offset="1" style="stop-color:#68C2C4"/>
				</linearGradient>
				<path id="XMLID_451_" class="st121" d="M348,495.9c0,0,2.8-4.7,8.8-5.4c6-0.7,11.9,3,11.9,3s-3.9,0.4-11.9,5.3
					c-8.1,4.9-7.5,12.8-7.5,12.8S342.4,506,348,495.9z"/>
				<linearGradient id="XMLID_256_" gradientUnits="userSpaceOnUse" x1="348.9835" y1="485.1894" x2="369.6924" y2="514.6733">
					<stop  offset="0" style="stop-color:#59AAC0"/>
					<stop  offset="1" style="stop-color:#4F83C4"/>
				</linearGradient>
				<path id="XMLID_30_" class="st122" d="M367.9,505.3c-2.5,2.4-3.4,2.7-3.4,2.7s2.1,0.9,4-0.2c1.9-1.1,1.9-1.1,1.9-1.1
					s-1,6.3-6.2,8.2c-5.2,1.8-9.5,1.9-9.5,1.9s10.1,4.4,17.2-2.7c7.1-7.1,4.4-13.2,2.4-16.2s-4.1-3.9-4.1-3.9
					S373.3,500.2,367.9,505.3z"/>
				<path id="XMLID_69_" class="st123" d="M355.1,491.3c-3,1.4-5.8,4.9-2.1,5.4c1.5,0.2,9.2-1,9-3.9
					C361.9,491.6,359.8,489.2,355.1,491.3z"/>
			</g>
			<g id="XMLID_29_">
				<g id="XMLID_161_">
					<linearGradient id="XMLID_257_" gradientUnits="userSpaceOnUse" x1="371.4524" y1="394.6494" x2="404.0953" y2="456.2497">
						<stop  offset="0" style="stop-color:#59AAC0"/>
						<stop  offset="1" style="stop-color:#4F83C4"/>
					</linearGradient>
					<ellipse id="XMLID_159_" class="st124" cx="417.4" cy="481.4" rx="22.6" ry="21.1"/>
					<linearGradient id="XMLID_258_" gradientUnits="userSpaceOnUse" x1="405.5862" y1="465.039" x2="447.7061" y2="541.9078">
						<stop  offset="0" style="stop-color:#59AAC0"/>
						<stop  offset="1" style="stop-color:#4F83C4"/>
					</linearGradient>
					<ellipse id="XMLID_162_" class="st125" cx="413.9" cy="480.3" rx="18.2" ry="16.9"/>
					<linearGradient id="XMLID_259_" gradientUnits="userSpaceOnUse" x1="432.589" y1="472.5482" x2="436.2744" y2="507.4726">
						<stop  offset="0" style="stop-color:#4E90C4"/>
						<stop  offset="1" style="stop-color:#191644"/>
					</linearGradient>
					<path id="XMLID_53_" class="st126" d="M432.1,473.5c0,0,2.5,3.4,0.7,10.5c-1.8,7.1-4.3,8.5-4.3,8.5s4.9-4.1,6.8-4.1
						c1.9,0,1.6,2.1,1.6,2.1s3.4-4.3,2.8-10.5c-0.6-6.1-3-8.2-3-8.2s0.7,1.4-0.7,2.3S432.1,473.5,432.1,473.5z"/>
				</g>
				<linearGradient id="XMLID_260_" gradientUnits="userSpaceOnUse" x1="410.9449" y1="462.6636" x2="408.9128" y2="476.5294">
					<stop  offset="0" style="stop-color:#59AAC0"/>
					<stop  offset="1" style="stop-color:#68C2C4"/>
				</linearGradient>
				<path id="XMLID_452_" class="st127" d="M400.1,471.4c0,0,2.8-4.7,8.8-5.4s11.9,3,11.9,3s-3.9,0.4-11.9,5.3
					c-8.1,4.9-7.5,12.8-7.5,12.8S394.5,481.5,400.1,471.4z"/>
				<linearGradient id="XMLID_261_" gradientUnits="userSpaceOnUse" x1="396.1824" y1="452.0378" x2="416.8913" y2="481.5217">
					<stop  offset="0" style="stop-color:#59AAC0"/>
					<stop  offset="1" style="stop-color:#4F83C4"/>
				</linearGradient>
				<path id="XMLID_46_" class="st128" d="M422,481.4c-2.7,2.6-3.7,2.9-3.7,2.9s2.2,0.9,4.3-0.3s2.1-1.2,2.1-1.2s-1.1,6.8-6.7,8.8
					c-5.7,2-10.3,2.1-10.3,2.1s10.9,4.7,18.6-2.9c7.6-7.6,4.7-14.2,2.6-17.5c-2.1-3.3-4.5-4.2-4.5-4.2S427.7,475.9,422,481.4z"/>
				<path id="XMLID_63_" class="st123" d="M405.7,469.2c-3,1.4-5.8,4.9-2.1,5.4c1.5,0.2,9.2-1,9-3.9
					C412.6,469.5,410.4,467,405.7,469.2z"/>
			</g>
		</g>
	</g>
	<linearGradient id="XMLID_262_" gradientUnits="userSpaceOnUse" x1="396.8225" y1="526.9888" x2="408.932" y2="553.577">
		<stop  offset="0.1436" style="stop-color:#F7AFAA"/>
		<stop  offset="0.9333" style="stop-color:#E58880"/>
	</linearGradient>
	<path id="XMLID_2_" class="st129" d="M404.6,544.7l3.2,31.1c0,0,4.7,1.1,10-1.1c5.3-2.1,9.7-5.3,9.7-5.3L404.6,544.7z"/>
</g>
</svg>
