<?xml version="1.0" encoding="iso-8859-1"?>
<!-- Generator: Adobe Illustrator 25.2.1, SVG Export Plug-In . SVG Version: 6.00 Build 0)  -->
<svg version="1.1" xmlns="http://www.w3.org/2000/svg" xmlns:xlink="http://www.w3.org/1999/xlink" x="0px" y="0px"
	 viewBox="0 0 600 600" enable-background="new 0 0 600 600" xml:space="preserve">
<g id="Background_x5F_SIMPLE">
	<path fill="#EFE5E9" d="M556.6317139,225.3625641c0,0-6.87323-5.4985809-16.4957275-1.7183075
		s-7.9042358,10.6534882-7.9042358,10.6534882l-23.7685242,5.0333405c-0.5683289,0.1203613-0.4718628,0.9607849,0.1087036,0.9389954
		c11.966095-0.4490051,39.7767639-1.4282684,48.0597839-1.1610718c10.6535034,0.3436584,2.0620117-3.0929565,2.0620117-3.0929565
		s35.7407227-0.8161926,39.5209961-0.8161926s-7.2168579-6.0570221-13.402771-6.4006958
		c-6.1859131-0.3436584-7.2168579,0-7.2168579,0s-3.1359253-6.7873077-6.5296021-8.2478638
		C567.671875,219.090744,559.0373535,218.1456757,556.6317139,225.3625641z"/>
	<path fill="#EFE5E9" d="M531.2008057,105.7684326c0,0-1.3746338-8.5915298-7.9042358-9.6225128
		c-6.529541-1.030983-17.1830444,1.3746414-20.6196594,5.4985809c0,0,4.4675903-18.9013748-7.9042053-22.3379898
		c-12.3718262-3.4366074-18.2140503,1.0309906-22.3379822,7.904213s-2.7492981,11.6844864-2.7492981,11.6844864
		s-9.4506836-5.3267517-12.7154541-3.7802734c-3.264801,1.5464706-3.436615,6.5295639-3.436615,6.5295639
		s-2.2337952-3.0929565-7.3887329-1.8901367c-5.1549072,1.2028122-3.436615,4.2957611-3.436615,4.2957611
		s-32.9914856,1.7183075-38.8337097,5.4985809c0,0,52.0646667-0.6873245,74.0589905-1.030983s63.2337036,0,67.7012939-0.6873245
		C550.1021729,107.1430817,531.2008057,105.7684326,531.2008057,105.7684326z"/>
	<path fill="#EFE5E9" d="M378.4863281,111.9972916c3.2218018-0.1288681-16.3668823-10.6964569-23.0682678-10.6964569
		c-6.701416,0-5.6704102,8.2478714-5.6704102,8.2478714s-29.2541809,1.5464783-25.2591248,2.0619659
		C328.4836121,112.1261673,375.2644958,112.1261673,378.4863281,111.9972916z"/>
	<path fill="#EFE5E9" d="M228.4352112,204.7428741c0,0-3.7802734-9.2788544-13.0591278-12.0281372
		s-13.4028015,2.4056244-13.4028015,2.4056244s-8.2478638-12.7154694-16.4957275-9.6225128
		c-8.247879,3.0929565-6.87323,14.0901184-6.87323,14.0901184s-7.2168884-2.0619659-12.0281525,0.3436584
		c-4.8112488,2.4056244-4.4675903,7.5605469-4.4675903,7.5605469l-15.4647522,1.374649
		c0,0,10.8677216,2.0619659,22.3379822,2.0619659c14.4337616,0,37.1154175-4.1239319,37.1154175-4.1239319
		S252.4915009,205.4302063,228.4352112,204.7428741z"/>
	<path fill="#EFE5E9" d="M92.5171738,274.506134c0,0-17.0112381-0.2577515-18.2999649-0.2577515
		s-1.2887268-6.701416-8.2478714-7.2168884c-6.9591408-0.5155029-13.1450424,6.7013855-13.1450424,6.7013855
		s-1.0309868-10.0520935-14.1760292-9.5365906c-13.1450443,0.5154724-14.6915264,12.1140747-14.6915264,12.1140747
		C22.2894974,276.8981018,76.178894,280.1618042,92.5171738,274.506134z"/>
</g>
<g id="Layer_x5F_cactus">
	
		<linearGradient id="SVGID_1_" gradientUnits="userSpaceOnUse" x1="578.4596558" y1="464.4724121" x2="591.1737671" y2="452.229187" gradientTransform="matrix(0.6276932 -0.7784608 0.7784608 0.6276932 -177.484787 610.1603394)">
		<stop  offset="0" style="stop-color:#222E51;stop-opacity:0"/>
		<stop  offset="1" style="stop-color:#FFFFFF"/>
	</linearGradient>
	<path fill="url(#SVGID_1_)" d="M544.8481445,447.1335449c-1.0461426,4.2981873,4.2988892,10.422699,4.3988647,3.546936
		S545.8942261,442.8353882,544.8481445,447.1335449z"/>
	<g>
		<path fill="#49BCCB" d="M517.1106567,548.9196777l-0.6494141-91.0833435
			c-0.0184937-2.5952759-2.324585-4.5324707-4.8972473-4.1896362c-5.1173401,0.6819458-12.9128418,0.1769714-16.4476318-7.9972534
			c-5.4985962-12.7154846-4.8112488-37.1154175-3.436615-42.6140137c1.3746338-5.4985657,8.2478638-8.5915222,10.309845,0.3436584
			c2.0619507,8.9352112,1.3746338,19.932373,4.1239319,20.9633484s7.5605469,4.4675903,6.529541-7.5605469
			c-1.0309753-12.0281372-0.6873169-38.4900513,1.7183228-39.8647156
			c2.4056396-1.3746338,11.6845093-6.5295715,12.0281372,8.9352112c0.343689,15.4647522,1.2887573,55.9308777,3.6084595,57.9069214
			s10.8253174,2.5774536,10.4816895-8.0760498c-0.343689-10.6535034,2.7492676-11.6844788,6.87323-10.309845
			c4.1239014,1.3746643,4.1239014,11.6844788,4.8112183,19.5887146c0.6873169,7.9042053,2.0619507,24.3999329-7.2168579,25.4309082
			c-9.2788696,1.0310059-9.2788696,1.0310059-10.6535034,7.9042358c-1.3746338,6.8731995,0,70.5364685,0,70.5364685
			L517.1106567,548.9196777z"/>
		
			<linearGradient id="SVGID_2_" gradientUnits="userSpaceOnUse" x1="550.2327881" y1="430.2254028" x2="439.2874146" y2="566.6950073">
			<stop  offset="0" style="stop-color:#222E51;stop-opacity:0"/>
			<stop  offset="1" style="stop-color:#231F20"/>
		</linearGradient>
		<path fill="url(#SVGID_2_)" d="M517.1106567,548.9196777l-0.6494141-91.0833435
			c-0.0184937-2.5952759-2.324585-4.5324707-4.8972473-4.1896362c-5.1173401,0.6819458-12.1887817-1.114624-15.4166565-9.414856
			c-2.7063293-6.959137,1.7183228-15.7654724,3.0929565-21.2640381c1.3746338-5.4985962,0.6873169-28.5238953,2.7492981-19.5887146
			c2.0619507,8.9352112,1.3746338,19.932373,4.1239319,20.9633484s7.5605469,4.4675903,6.529541-7.5605469
			c-1.0309753-12.0281372,5.1549683-26.1182556,7.5605469-27.4928894c2.4056396-1.3746643,5.8422852-18.9013977,6.1859131-3.436615
			c0.343689,15.4647522-2.6633911,47.9407349,0.171814,58.5083313c2.8352051,10.5675659,6.0570679-1.675354,7.7324219,6.443634
			c1.675354,8.1190186-9.7943726,29.5119324-9.7943726,63.0188904s1.8901367,35.010498,1.8901367,35.010498L517.1106567,548.9196777
			z"/>
		
			<linearGradient id="SVGID_3_" gradientUnits="userSpaceOnUse" x1="567.1656494" y1="468.9437256" x2="579.8797607" y2="456.7005005" gradientTransform="matrix(0.6276932 -0.7784608 0.7784608 0.6276932 -177.484787 610.1603394)">
			<stop  offset="0" style="stop-color:#222E51;stop-opacity:0"/>
			<stop  offset="1" style="stop-color:#FFFFFF"/>
		</linearGradient>
		<path fill="url(#SVGID_3_)" d="M541.2396851,458.7321167c-1.0460815,4.2981873,4.2988892,10.422699,4.3988647,3.546936
			S542.2858276,454.43396,541.2396851,458.7321167z"/>
		
			<linearGradient id="SVGID_4_" gradientUnits="userSpaceOnUse" x1="571.5651855" y1="402.2670898" x2="584.2792969" y2="390.0238647" gradientTransform="matrix(0.6276932 -0.7784608 0.7784608 0.6276932 -177.484787 610.1603394)">
			<stop  offset="0" style="stop-color:#222E51;stop-opacity:0"/>
			<stop  offset="1" style="stop-color:#FFFFFF"/>
		</linearGradient>
		<path fill="url(#SVGID_4_)" d="M492.0961304,413.4547424c-1.0461121,4.2981873,4.2988892,10.422699,4.3988647,3.546936
			S493.1422424,409.1565857,492.0961304,413.4547424z"/>
		
			<linearGradient id="SVGID_5_" gradientUnits="userSpaceOnUse" x1="571.0106201" y1="432.51297" x2="583.7247314" y2="420.2697449" gradientTransform="matrix(0.6276932 -0.7784608 0.7784608 0.6276932 -177.484787 610.1603394)">
			<stop  offset="0" style="stop-color:#222E51;stop-opacity:0"/>
			<stop  offset="1" style="stop-color:#FFFFFF"/>
		</linearGradient>
		<path fill="url(#SVGID_5_)" d="M515.2932739,432.8716125c-1.0461426,4.2981567,4.2988892,10.422699,4.3988647,3.546936
			C519.7921143,429.5427551,516.3393555,428.5734558,515.2932739,432.8716125z"/>
		
			<linearGradient id="SVGID_6_" gradientUnits="userSpaceOnUse" x1="605.7546997" y1="407.3623352" x2="618.468811" y2="395.1191101" gradientTransform="matrix(0.6276932 -0.7784608 0.7784608 0.6276932 -177.484787 610.1603394)">
			<stop  offset="0" style="stop-color:#222E51;stop-opacity:0"/>
			<stop  offset="1" style="stop-color:#FFFFFF"/>
		</linearGradient>
		<path fill="url(#SVGID_6_)" d="M517.5230713,390.0378418c-1.0460815,4.2981567,4.2988892,10.4226685,4.3988647,3.5469055
			S518.5692139,385.7396851,517.5230713,390.0378418z"/>
		
			<linearGradient id="SVGID_7_" gradientUnits="userSpaceOnUse" x1="515.6748047" y1="493.0192261" x2="528.388916" y2="480.776001" gradientTransform="matrix(0.6276932 -0.7784608 0.7784608 0.6276932 -177.484787 610.1603394)">
			<stop  offset="0" style="stop-color:#222E51;stop-opacity:0"/>
			<stop  offset="1" style="stop-color:#FFFFFF"/>
		</linearGradient>
		<path fill="url(#SVGID_7_)" d="M527.6610718,513.9277344c-1.0460815,4.2981567,4.2988892,10.4226685,4.3988647,3.546936
			C532.1599121,510.598877,528.7072144,509.6295776,527.6610718,513.9277344z"/>
	</g>
	<g>
		<path fill="#49BCCB" d="M575.1894531,548.9196777c0,0,0-28.6957397,0-35.9126587
			c0-7.2168579-1.5465088-9.1069946-3.4366455-9.1069946s-4.1453857,0.4510498-6.9161377-0.7088013
			c-2.7943115-1.1696777-3.5440063-5.6704102-3.5440063-10.3742676c0-3.9670105-0.227478-8.4351501,3.4151001-8.5700684
			c3.4795532-0.1288757,3.5440063,3.9306335,3.5440063,8.0545654s5.9066772,3.8661804,5.9066772,0.085907
			s0.171814-13.0591125,0.6873169-14.4337463c0.5155029-1.3746643,4.7253418-2.6633911,5.5845337,1.4605408
			c0.8591309,4.1239319,0.1288452,19.5672302,0.2577515,21.2210999c0.1288452,1.6538696,2.8352051,1.6546021,2.8352051-1.1169128
			c0-4.3816833,1.6109009-5.9281616,4.3816528-5.9281616s2.9640503,12.0496216,1.2243042,15.8513794
			c-1.7398071,3.8017273-5.4771118,2.1908569-5.4771118,4.8327332c0,2.6419067,0.6443481,34.8171997,0.6443481,34.8171997
			L575.1894531,548.9196777z"/>
		
			<linearGradient id="SVGID_8_" gradientUnits="userSpaceOnUse" x1="585.6887817" y1="515.1547241" x2="552.8493042" y2="521.506897">
			<stop  offset="0" style="stop-color:#222E51;stop-opacity:0"/>
			<stop  offset="1" style="stop-color:#FFFFFF"/>
		</linearGradient>
		<path fill="url(#SVGID_8_)" d="M575.1894531,548.9196777c0,0,0-28.6957397,0-35.9126587
			c0-7.2168579-1.5465088-9.1069946-3.4366455-9.1069946s-4.1453857,0.4510498-6.9161377-0.7088013
			c-2.7943115-1.1696777-3.5440063-5.6704102-3.5440063-10.3742676c0-3.9670105,0.4510498-7.7323914,2.5130005-6.8302612
			c2.0619507,0.9020996,4.446106,2.1908264,4.446106,6.3147583s-1.4820557,6.4436646,1.9975586,7.8612671
			c3.4795532,1.4176025,1.4176025-2.7063293,5.7992554-1.5464783c4.3817139,1.1598511,0.9067383,7.2771301,3.0929565,23.4548645
			c1.0730591,7.9407959-1.1598511,6.5725098,0.9020996,15.4647827c2.0620117,8.8922119,4.2528076,11.555603,4.2528076,11.555603
			L575.1894531,548.9196777z"/>
		
			<linearGradient id="SVGID_9_" gradientUnits="userSpaceOnUse" x1="585.0215454" y1="503.6542664" x2="591.9807129" y2="496.9528503">
			<stop  offset="0" style="stop-color:#222E51;stop-opacity:0"/>
			<stop  offset="1" style="stop-color:#FFFFFF"/>
		</linearGradient>
		<path fill="url(#SVGID_9_)" d="M586.0362549,501.1936951c-2.1908569,1.0309753-2.9641113,5.4126587,0,3.0929565
			C589.0003052,501.9669189,588.2271118,500.1627197,586.0362549,501.1936951z"/>
		
			<linearGradient id="SVGID_10_" gradientUnits="userSpaceOnUse" x1="560.4041748" y1="517.2954102" x2="567.3633423" y2="510.5939941" gradientTransform="matrix(0.4666459 -0.8844442 0.8844442 0.4666459 -141.0701599 744.4973755)">
			<stop  offset="0" style="stop-color:#222E51;stop-opacity:0"/>
			<stop  offset="1" style="stop-color:#FFFFFF"/>
		</linearGradient>
		<path fill="url(#SVGID_10_)" d="M576.2563477,488.1992798c-0.1104736,2.4187622,3.4040527,5.1473389,2.7355347,1.4432983
			C578.3234253,485.9385376,576.3668823,485.7804871,576.2563477,488.1992798z"/>
		
			<linearGradient id="SVGID_11_" gradientUnits="userSpaceOnUse" x1="579.6741333" y1="516.1172485" x2="584.5874023" y2="520.0317993">
			<stop  offset="0" style="stop-color:#222E51;stop-opacity:0"/>
			<stop  offset="1" style="stop-color:#FFFFFF"/>
		</linearGradient>
		<path fill="url(#SVGID_11_)" d="M581.5256958,517.8182983c1.2887573-1.4820557-0.3865967-2.1908569-1.8686523-2.0619507
			C578.1749878,515.8851929,580.2369385,519.300354,581.5256958,517.8182983z"/>
	</g>
</g>
<g id="Layer_x5F_plants">
	<g id="leaf_5_1_">
		<path fill="#49BCCB" d="M141.7036896,549.0784302c0,0,3.554718-9.479248,11.1381226-17.5366211
			s14.9298401,0.947937,9.7162476,8.7683105C160.2623138,543.7537231,145.2584076,550.0263672,141.7036896,549.0784302z"/>
		
			<linearGradient id="SVGID_12_" gradientUnits="userSpaceOnUse" x1="153.2098389" y1="537.8470459" x2="129.9856567" y2="552.5991211">
			<stop  offset="0" style="stop-color:#222E51;stop-opacity:0"/>
			<stop  offset="1" style="stop-color:#231F20"/>
		</linearGradient>
		<path fill="url(#SVGID_12_)" d="M141.7036896,549.0784302c0,0,3.554718-9.479248,11.1381226-17.5366211
			c5.1093597-5.4287109-2.1696777,4.9587402-4.1767883,10.5456543c-0.9718933,2.7053223-0.2962341,3.0215454,1.4811249,3.7324829
			S145.2584076,550.0263672,141.7036896,549.0784302z"/>
	</g>
	<g id="leaf_4_1_">
		<path fill="#49BCCB" d="M117.690361,546.0844727c0,0,2.6279297-38.2895508-10.739418-43.3872681
			c-10.1380081-3.8661804-14.9492645,5.2838135-8.4197006,13.8753052
			C108.8742218,530.1817017,117.690361,546.0844727,117.690361,546.0844727z"/>
		
			<linearGradient id="SVGID_13_" gradientUnits="userSpaceOnUse" x1="119.5052567" y1="516.2981567" x2="89.6247787" y2="565.5316772">
			<stop  offset="0" style="stop-color:#222E51;stop-opacity:0"/>
			<stop  offset="1" style="stop-color:#231F20"/>
		</linearGradient>
		<path fill="url(#SVGID_13_)" d="M116.6593781,547.8886719c0,0,1.030983-29.5548706-3.866188-34.9675293
			c-4.8971786-5.4126587-9.8802643-1.3746643-6.0140762,5.5844727
			C110.6453018,525.4647827,116.6593781,547.8886719,116.6593781,547.8886719z"/>
	</g>
	<g id="leaf_3_1_">
		<path fill="#49BCCB" d="M116.7023315,549.0055542c0,0,5.1549225-13.74646,16.1520844-25.4309082
			c10.9971619-11.6845093,21.6506653,1.3746338,14.0901184,12.7154541
			C143.6153412,541.2838745,121.857254,550.380188,116.7023315,549.0055542z"/>
		
			<linearGradient id="SVGID_14_" gradientUnits="userSpaceOnUse" x1="133.388092" y1="532.7182007" x2="99.7092896" y2="554.111145">
			<stop  offset="0" style="stop-color:#222E51;stop-opacity:0"/>
			<stop  offset="1" style="stop-color:#231F20"/>
		</linearGradient>
		<path fill="url(#SVGID_14_)" d="M116.7023315,549.0055542c0,0,5.1549225-13.74646,16.1520844-25.4309082
			c7.4093781-7.8724976-3.1463928,7.19104-6.0570297,15.2929077c-1.4093933,3.9230957-0.4295807,4.3817139,2.1478806,5.4126587
			C131.5227203,545.3112183,121.857254,550.380188,116.7023315,549.0055542z"/>
	</g>
	<g id="leaf_2_1_">
		<path fill="#49BCCB" d="M114.9410706,516.7873535c1.7183075-7.2169189,1.9760513-9.2359314,8.1619568-19.8894348
			c6.1858978-10.6535034,23.7126312,4.4675903,10.3098297,26.4619446
			c-13.4027863,21.9943237-14.8203888,25.302063-16.5386887,25.6456909
			C115.1558609,549.3492432,113.2227631,524.0042114,114.9410706,516.7873535z"/>
		
			<linearGradient id="SVGID_15_" gradientUnits="userSpaceOnUse" x1="129.8612366" y1="511.8579102" x2="104.3417511" y2="570.5020142" gradientTransform="matrix(0.9908955 0.1346337 -0.1346337 0.9908955 69.5069427 -12.5928917)">
			<stop  offset="0" style="stop-color:#222E51;stop-opacity:0"/>
			<stop  offset="1" style="stop-color:#231F20"/>
		</linearGradient>
		<path fill="url(#SVGID_15_)" d="M118.3776855,542.4760132c0,0-1.2874756-20.6049805,3.7802734-31.1013489
			c0,0-2.5142059,11.8148499,3.0929489,10.8253479c4.3816757-0.7732544,9.278862-6.701416,9.278862-6.701416
			L118.3776855,542.4760132z"/>
	</g>
	<g id="leaf_1_1_">
		<path fill="#49BCCB" d="M117.7762756,549.1344604c0,0-5.0690002-21.6936646-20.104187-30.8006592
			c-12.2269516-7.4060364-12.8872986,1.4176025-8.7633591,10.6964722
			C93.0326614,538.309082,105.4044724,552.227417,117.7762756,549.1344604z"/>
		
			<linearGradient id="SVGID_16_" gradientUnits="userSpaceOnUse" x1="93.6079102" y1="530.7503052" x2="155.209198" y2="562.9685669" gradientTransform="matrix(0.9976914 0.0679105 -0.0679105 0.9976914 36.3428841 -6.4645133)">
			<stop  offset="0" style="stop-color:#222E51;stop-opacity:0"/>
			<stop  offset="1" style="stop-color:#231F20"/>
		</linearGradient>
		<path fill="url(#SVGID_16_)" d="M114.060257,548.6572876c0,0-2.3627548-14.6279907-9.265419-19.4896851
			c-6.9026642-4.8616333-10.0234833-4.557373-10.0234833-4.557373s13.9278564,7.9232788,2.999588,12.862915
			C101.4158859,541.8255615,109.3144226,546.2675171,114.060257,548.6572876z"/>
	</g>
	<path fill="#49BCCB" d="M106.6066666,479.2941284c-3.7887421,0.7577515-9.0929794-11.3662109-2.7784119-10.60849
		C110.1428223,469.4433899,110.3954086,478.536377,106.6066666,479.2941284z"/>
	<path fill="#49BCCB" d="M83.7538071,497.3704529c-1.8901367-0.6873169-4.8112564,3.9521179-1.2028122,4.9830933
		S85.6439438,498.0577698,83.7538071,497.3704529z"/>
	<path fill="#49BCCB" d="M157.2973175,503.040863c-1.8901367-0.8591309-7.7323761,5.8422546-3.436615,6.5295715
		C158.1564789,510.2577515,159.1874542,503.9000244,157.2973175,503.040863z"/>
</g>
<g id="LAYER_x5F_GROUND">
	<g>
		<rect x="0.4303797" y="548.4396973" fill="#673655" width="593.8465576" height="1.1312184"/>
	</g>
</g>
<g id="Layer_x5F_sparkles">
	<path id="sparkle_2_1_" fill="#F6B042" d="M378.6151733,214.5185699c0,0,0.7571106,6.6493835,2.9296875,9.8753204
		s5.6618652,3.2917786,5.6618652,3.2917786s-8.3265076,1.1538086-8.3265076,17.0859985
		c0,0,0.2945557-15.7323761-8.8565674-15.7323761C370.0236511,229.0392914,377.627655,226.566452,378.6151733,214.5185699z"/>
	<path id="sparkle_1_1_" fill="#F6B042" d="M232.9028015,325.1774902c0,0,0.7571106,6.6493835,2.9296875,9.8753357
		c2.1725616,3.2259216,5.66185,3.2917786,5.66185,3.2917786s-8.3265076,1.1538086-8.3265076,17.0859985
		c0,0,0.2945709-15.7323914-8.8565674-15.7323914C224.311264,339.6982117,231.9152679,337.2254028,232.9028015,325.1774902z"/>
</g>
<g id="Layer_x5F_BUBBLES">
	<circle id="XMLID_32_" fill="#EFE4E8" cx="412.5561829" cy="222.9225616" r="4.0682626"/>
	<circle id="XMLID_31_" fill="#EFE4E8" cx="254.5579224" cy="202.5606232" r="4.0682626"/>
	<circle id="XMLID_30_" fill="#EFE4E8" cx="261.2315063" cy="180.2041626" r="7.3064899"/>
	<circle id="XMLID_29_" fill="#EFE4E8" cx="407.8955994" cy="256.386322" r="3.0295572"/>
	<circle fill="#EFE4E8" cx="229.6380157" cy="295.1257935" r="3.3506975"/>
</g>
<g id="Layer_x5F_BUS_STOP">
	<g>
		<rect x="135.3029938" y="150.2725677" fill="#673655" width="7.216887" height="398.9907532"/>
		
			<linearGradient id="SVGID_17_" gradientUnits="userSpaceOnUse" x1="138.911438" y1="203.1104889" x2="138.911438" y2="149.1134796">
			<stop  offset="0" style="stop-color:#222E51;stop-opacity:0"/>
			<stop  offset="1" style="stop-color:#231F20"/>
		</linearGradient>
		<rect x="135.3029938" y="150.2725677" fill="url(#SVGID_17_)" width="7.216887" height="51.033699"/>
		<g>
			<path fill="#673655" d="M159.6386566,40.4727898H118.184227c-1.7421875,0-3.4130096,0.6920815-4.6449203,1.9239922
				L84.226593,71.7094879c-1.2319107,1.2319107-1.9239883,2.9027405-1.9239883,4.644928v41.4544373
				c0,1.7421799,0.6920776,3.4130096,1.9239883,4.6449203l29.3127136,29.312706
				c1.2319107,1.2319183,2.9027328,1.923996,4.6449203,1.923996h41.4544296c1.7421875,0,3.4130249-0.6920776,4.644928-1.923996
				l29.3127136-29.312706c1.2319031-1.2319107,1.923996-2.9027405,1.923996-4.6449203V76.3544159
				c0-1.7421875-0.6920929-3.4130173-1.923996-4.644928l-29.3127136-29.312706
				C163.0516815,41.1648712,161.3808441,40.4727898,159.6386566,40.4727898z"/>
			<path fill="#EFE5E9" d="M156.7401276,45.9713707h-35.6573639c-2.1397705,0-4.1919022,0.8500214-5.7049484,2.3630676
				l-25.213562,25.2135658c-1.5130539,1.5130463-2.3630676,3.5651779-2.3630676,5.7049484v35.6573639
				c0,2.1397705,0.8500137,4.1919022,2.3630676,5.7049484l25.213562,25.213562
				c1.5130463,1.5130463,3.5651779,2.3630676,5.7049484,2.3630676h35.6573639c2.1397705,0,4.1918945-0.8500214,5.7049561-2.3630676
				l25.213562-25.213562c1.5130463-1.5130463,2.3630676-3.5651779,2.3630676-5.7049484V79.2529526
				c0-2.1397705-0.8500214-4.1919022-2.3630676-5.7049484l-25.213562-25.2135658
				C160.9320221,46.8213921,158.8798981,45.9713707,156.7401276,45.9713707z"/>
			
				<linearGradient id="SVGID_18_" gradientUnits="userSpaceOnUse" x1="112.618248" y1="99.4944534" x2="269.8885803" y2="40.2246628">
				<stop  offset="0" style="stop-color:#222E51;stop-opacity:0"/>
				<stop  offset="1" style="stop-color:#231F20"/>
			</linearGradient>
			<path fill="url(#SVGID_18_)" d="M162.6240692,47.1741867c-9.2788544-4.6394272-41.1027908-1.202816-41.1027908-1.202816
				c-2.4205475,0-4.7419586,0.9615593-6.4535446,2.6731453L90.4743271,73.2379227
				c-1.711586,1.711586-2.6731415,4.0329971-2.6731415,6.4535446c0,0,45.5140762,90.680191,55.7496872,52.0233917
				c8.2095642-31.0050354-31.2870331-17.4697113-22.6816483-24.2281189
				c9.9465103-7.8116837-14.4337692-20.6196747-6.7013931-34.5379562S171.9029236,51.8136139,162.6240692,47.1741867z"/>
			
				<linearGradient id="SVGID_19_" gradientUnits="userSpaceOnUse" x1="137.144516" y1="98.1779709" x2="87.5244064" y2="363.1690979">
				<stop  offset="0" style="stop-color:#222E51;stop-opacity:0"/>
				<stop  offset="1" style="stop-color:#231F20"/>
			</linearGradient>
			<path fill="url(#SVGID_19_)" d="M87.8011856,75.9110718v42.3411255l29.9396973,29.9396973h42.3411179
				c0,0,62.8546295-58.2318802-0.2931366-34.519249C99.1163559,136.4557953,87.8011856,75.9110718,87.8011856,75.9110718z"/>
		</g>
		<g>
			<path fill="#673655" d="M161.5858612,106.1980133H113.401825c-2.1392288,0-3.8734207-1.7341919-3.8734207-3.8734207v-13.64608
				c0-2.1392288,1.7341919-3.8734207,3.8734207-3.8734207h48.1840363c2.1392212,0,3.8734131,1.7341919,3.8734131,3.8734207v13.64608
				C165.4592743,104.4638214,163.7250824,106.1980133,161.5858612,106.1980133z"/>
			<circle fill="#EFE5E9" cx="119.4945831" cy="107.2289963" r="3.8661895"/>
			<circle fill="#EFE5E9" cx="156.0300751" cy="107.2289963" r="3.8661895"/>
			<circle fill="#673655" cx="119.4945831" cy="107.8303986" r="3.2647822"/>
			<circle fill="#673655" cx="156.0945129" cy="107.8303986" r="3.2647822"/>
			<path fill="#EFE5E9" d="M121.362999,95.7257385h-8.1485214c-0.3512955,0-0.6360779-0.2847824-0.6360779-0.6360779v-4.938591
				c0-2.0133972,1.6321793-3.6455688,3.6455688-3.6455688h5.1390305c0.3512955,0,0.6360779,0.2847824,0.6360779,0.6360703v7.9480896
				C121.9990768,95.4409561,121.7142944,95.7257385,121.362999,95.7257385z"/>
			<path fill="#EFE5E9" d="M155.227066,95.7257385h8.1485291c0.3512878,0,0.6360779-0.2847824,0.6360779-0.6360779v-4.938591
				c0-2.0133972-1.6321869-3.6455688-3.6455688-3.6455688h-5.1390381c-0.3512878,0-0.6360779,0.2847824-0.6360779,0.6360703
				v7.9480896C154.5909882,95.4409561,154.8757782,95.7257385,155.227066,95.7257385z"/>
			<path fill="#EFE5E9" d="M128.8227386,95.6505737h-4.0286484c-0.4089737,0-0.740509-0.331543-0.740509-0.740509v-7.6891174
				c0-0.4089661,0.3315353-0.7405014,0.740509-0.7405014h4.0286484c0.4089661,0,0.740509,0.3315353,0.740509,0.7405014v7.6891174
				C129.5632477,95.3190308,129.2317047,95.6505737,128.8227386,95.6505737z"/>
			<path fill="#EFE5E9" d="M136.836792,95.6505737h-4.028656c-0.4089661,0-0.740509-0.331543-0.740509-0.740509v-7.6891174
				c0-0.4089661,0.331543-0.7405014,0.740509-0.7405014h4.028656c0.4089661,0,0.7404938,0.3315353,0.7404938,0.7405014v7.6891174
				C137.5772858,95.3190308,137.2457581,95.6505737,136.836792,95.6505737z"/>
			<path fill="#EFE5E9" d="M144.6838684,95.6505737h-4.0286407c-0.4089661,0-0.740509-0.331543-0.740509-0.740509v-7.6891174
				c0-0.4089661,0.331543-0.7405014,0.740509-0.7405014h4.0286407c0.4089813,0,0.740509,0.3315353,0.740509,0.7405014v7.6891174
				C145.4243774,95.3190308,145.0928497,95.6505737,144.6838684,95.6505737z"/>
			<path fill="#EFE5E9" d="M151.9246826,95.6505737h-4.0286407c-0.4089661,0-0.740509-0.331543-0.740509-0.740509v-7.6891174
				c0-0.4089661,0.331543-0.7405014,0.740509-0.7405014h4.0286407c0.4089813,0,0.740509,0.3315353,0.740509,0.7405014v7.6891174
				C152.6651917,95.3190308,152.3336639,95.6505737,151.9246826,95.6505737z"/>
			<rect x="122.9956284" y="90.9909973" fill="#673655" width="30.7362061" height="0.5799284"/>
		</g>
	</g>
</g>
<g id="Layer_x5F_CHARACTER1">
	<g id="Right_shoe_1_">
		<polygon id="XMLID_28_" fill="#673655" points="344.9608765,524.5238647 345.3301086,534.0812378 337.2186584,535.6358643 
			335.8688049,525.413269 		"/>
		
			<linearGradient id="XMLID_10_" gradientUnits="userSpaceOnUse" x1="335.8688049" y1="530.079834" x2="345.3301086" y2="530.079834">
			<stop  offset="0" style="stop-color:#222E51;stop-opacity:0"/>
			<stop  offset="1" style="stop-color:#231F20"/>
		</linearGradient>
		<polygon id="XMLID_27_" fill="url(#XMLID_10_)" points="344.9608765,524.5238647 345.3301086,534.0812378 
			337.2186584,535.6358643 335.8688049,525.413269 		"/>
		<g id="XMLID_7_">
			<path id="XMLID_22_" fill="#673655" d="M309.2072144,549.1303101c3.5125427,0,38.4108276,0,38.4108276,0
				s1.5759583-5.3001709,1.2420654-8.9772949c-0.1335449-1.3501587-0.4674377-2.786499-0.8414307-4.0648804
				c-0.6410217-2.2407227-1.4156799-4.0074463-1.4156799-4.0074463c-6.5041809,1.8816528-11.5125427-1.6231079-11.5125427-1.6231079
				s-3.3389282,1.9678345-9.6828613,4.7543945c-6.3305359,2.786499-18.3106079,6.8082886-19.6861877,8.7905273
				c-0.0133667,0-0.0133667,0.0143433-0.0133667,0.0143433C304.372467,545.9846802,305.7080383,549.1303101,309.2072144,549.1303101
				z"/>
			
				<linearGradient id="XMLID_11_" gradientUnits="userSpaceOnUse" x1="327.0535889" y1="533.5408325" x2="327.0535889" y2="551.7471313">
				<stop  offset="0" style="stop-color:#222E51;stop-opacity:0"/>
				<stop  offset="1" style="stop-color:#231F20"/>
			</linearGradient>
			<path id="XMLID_14_" fill="url(#XMLID_11_)" d="M305.2138977,546.0133057
				c0.1736145,1.5944214,1.562561,3.1170044,3.9933167,3.1170044c3.5125427,0,38.4108276,0,38.4108276,0
				s0.4540405-1.522583,0.8146667-3.519104c0.3205261-1.7092896,0.5876465-3.7489014,0.4273987-5.4581909
				c-0.1335449-1.3501587-0.4674377-2.786499-0.8414307-4.0648804c-1.5759583-0.8187866-4.7546082-1.6375122-10.3639832-0.1293335
				c-8.9081726,2.3988037-22.9316101,9.1065674-28.3807373,8.8624268c-1.4824524-0.0718384-2.6443787-0.3878784-3.5525513-0.8187256
				c-0.0133667,0-0.0133667,0.0143433-0.0133667,0.0143433C305.307373,544.6201172,305.1471252,545.3239136,305.2138977,546.0133057
				z"/>
			<path id="XMLID_8_" fill="#673655" d="M305.2138977,546.0133057c0.1736145,1.5944214,1.562561,3.1170044,3.9933167,3.1170044
				c3.5125427,0,38.4108276,0,38.4108276,0s0.4540405-1.522583,0.8146667-3.519104
				c-5.5425415,0.2585449-23.2922363,1.0485229-31.5993958,1.2496338
				C310.9835205,546.9901123,307.2706299,546.4729614,305.2138977,546.0133057z"/>
		</g>
	</g>
	<g id="Right_leg_1_">
		<path fill="#F6B042" d="M331.8772583,529.3309326c0,0-21.3070068-75.9491272-24.3999634-88.3209229
			s12.3718262-20.0612183,17.5267334-17.6556091c5.1549072,2.4056396,10.309845,14.5626526,10.9971619,26.9344788
			c0.6873169,12.3717957,10.9971619,75.9491577,10.9971619,75.9491577L331.8772583,529.3309326z"/>
		
			<linearGradient id="SVGID_20_" gradientUnits="userSpaceOnUse" x1="331.5872498" y1="475.9963989" x2="367.9294434" y2="472.38797">
			<stop  offset="0" style="stop-color:#222E51;stop-opacity:0"/>
			<stop  offset="1" style="stop-color:#231F20"/>
		</linearGradient>
		<path fill="url(#SVGID_20_)" d="M331.8772583,529.3309326l4.8112488-17.6985168c0,0-16.839386-90.6836243-11.6844788-88.2780151
			c5.1549072,2.4056396,10.309845,14.5626526,10.9971619,26.9344788
			c0.6873169,12.3717957,10.9971619,75.9491577,10.9971619,75.9491577L331.8772583,529.3309326z"/>
		<path fill="#F6B042" d="M344.7215881,528.772522l-11.0830688,1.0309448
			c-2.861084,0.2601318-3.7997437-1.6881104-4.7459717-4.4006958l-2.8684387-8.2229004
			c-0.3592834-1.0299072,0.2648315-2.1417847,1.3311768-2.3713989l18.3373108-3.9496155
			c1.0612183-0.2285461,2.0843201,0.5195923,2.1882019,1.6001282l0.9208069,9.576416
			C349.1337891,525.4899292,348.1778259,528.458313,344.7215881,528.772522z"/>
		
			<linearGradient id="SVGID_21_" gradientUnits="userSpaceOnUse" x1="336.8707275" y1="510.9028625" x2="346.922821" y2="563.9985352">
			<stop  offset="0" style="stop-color:#222E51;stop-opacity:0"/>
			<stop  offset="0.1238233" style="stop-color:#222C4B;stop-opacity:0.1238233"/>
			<stop  offset="1" style="stop-color:#231F20"/>
		</linearGradient>
		<path fill="url(#SVGID_21_)" d="M344.7215881,528.772522l-11.0830688,1.0309448
			c-2.861084,0.2601318-3.7997437-1.6881104-4.7459717-4.4006958c0,0,4.7232361,2.4450073,7.1253357-3.8004761
			c3.579834-9.3075562,5.9620361-8.7092285,7.0283508-8.9389038l2.6463623-1.8045349
			c1.0612183-0.2285461,2.0843201,0.5195923,2.1882019,1.6001282l0.9208069,9.576416
			C349.1337891,525.4899292,348.1778259,528.458313,344.7215881,528.772522z"/>
	</g>
	<g id="Right_thigh_1_">
		<path fill="#F6B042" d="M295.7928162,371.7622681c0,0,8.5915222,66.4125366,13.230957,74.6604004
			s22.2950439,13.9183044,24.4858704,2.0619812s0.5155029-28.4809265-0.6014404-48.7139893
			c-1.1674194-21.1480713-0.3175354-34.280365-5.8422241-36.771759
			C321.3063965,360.4016113,299.4012756,350.6271057,295.7928162,371.7622681z"/>
		
			<linearGradient id="SVGID_22_" gradientUnits="userSpaceOnUse" x1="305.8775024" y1="418.9478149" x2="362.635437" y2="351.7436218">
			<stop  offset="0" style="stop-color:#222E51;stop-opacity:0"/>
			<stop  offset="1" style="stop-color:#231F20"/>
		</linearGradient>
		<path fill="url(#SVGID_22_)" d="M295.7928162,371.7622681c0,0,2.1478882,16.6031189,4.8757019,34.2372437
			s2.684845-0.2147827,12.9946899,10.7823792s17.6556091,43.559082,19.8464355,31.7027588
			s0.5155029-28.4809265-0.6014404-48.7139893c-1.1674194-21.1480713-0.3175354-34.280365-5.8422241-36.771759
			C321.3063965,360.4016113,299.4012756,350.6271057,295.7928162,371.7622681z"/>
	</g>
	<path id="bag_strap_1_" fill="#22AAE2" d="M358.2532654,242.5456238c0,0,6.443634,12.1140594,7.9901123,27.5788269
		s3.8661804,41.7548218,3.8661804,41.7548218l-6.443634-3.608429l-8.2259521-64.2830353L358.2532654,242.5456238z"/>
	<g id="Right_hand_1_">
		<polygon fill="#F6ADA8" points="272.569458,374.1593018 275.3690796,361.0702515 286.5750732,361.3473206 
			280.1869507,374.3653259 		"/>
		
			<linearGradient id="SVGID_23_" gradientUnits="userSpaceOnUse" x1="279.3671265" y1="372.7673035" x2="279.947052" y2="358.5912781">
			<stop  offset="0" style="stop-color:#222E51;stop-opacity:0"/>
			<stop  offset="1" style="stop-color:#231F20"/>
		</linearGradient>
		<polygon fill="url(#SVGID_23_)" points="272.569458,374.1593018 275.3690796,361.0702515 286.5750732,361.3473206 
			280.1869507,374.3653259 		"/>
		<g>
			<path fill="#F6ADA8" d="M272.7268066,380.5367126c1.2489624-0.5820618,3.7896729,9.5882874,4.0066223,10.6314697
				c0.2169189,1.0431824-0.7965393,3.1398315-2.2359009,0.6502075
				C271.1019592,385.9451599,271.4778748,381.1187744,272.7268066,380.5367126z"/>
			
				<linearGradient id="SVGID_24_" gradientUnits="userSpaceOnUse" x1="276.7891541" y1="393.6798401" x2="275.1073608" y2="381.5115356" gradientTransform="matrix(0.9976242 -0.0688917 0.0688917 0.9976242 -27.7565384 19.9398232)">
				<stop  offset="0" style="stop-color:#222E51;stop-opacity:0"/>
				<stop  offset="1" style="stop-color:#231F20"/>
			</linearGradient>
			<path fill="url(#SVGID_24_)" d="M272.7268066,380.5367126c1.2489624-0.5820618,3.7896729,9.5882874,4.0066223,10.6314697
				c0.2169189,1.0431824-0.7965393,3.1398315-2.2359009,0.6502075
				C271.1019592,385.9451599,271.4778748,381.1187744,272.7268066,380.5367126z"/>
			<path fill="#F6ADA8" d="M274.6436768,389.6266785c0,0,1.2254944,3.3861389,1.6884155,4.3458252
				s0.368042,5.3294983-1.6571045,3.2877197C272.6498718,395.2184448,266.8907471,386.4929504,274.6436768,389.6266785z"/>
			
				<linearGradient id="SVGID_25_" gradientUnits="userSpaceOnUse" x1="278.4179382" y1="394.5450439" x2="268.6239319" y2="390.6373291" gradientTransform="matrix(0.9976242 -0.0688917 0.0688917 0.9976242 -27.7565384 19.9398232)">
				<stop  offset="0" style="stop-color:#222E51;stop-opacity:0"/>
				<stop  offset="1" style="stop-color:#231F20"/>
			</linearGradient>
			<path fill="url(#SVGID_25_)" d="M274.6436768,389.6266785c0,0,1.2254944,3.3861389,1.6884155,4.3458252
				s0.368042,5.3294983-1.6571045,3.2877197C272.6498718,395.2184448,266.8907471,386.4929504,274.6436768,389.6266785z"/>
			<path fill="#F6ADA8" d="M277.9667969,368.8204651c-2.0139465-0.8029785-4.1278687-0.1385193-7.1109009,8.7196045
				c-1.8774414,5.5751343-2.6853943,10.2528381-2.3686218,13.4042358s3.6731567,11.5469666,5.2149048,12.3329773
				c1.5417786,0.7860107,1.5823975-1.4975891,1.3304749-2.2734985c-0.2518921-0.7759399-0.1191406-0.2892761-0.1191406-0.2892761
				s1.2694092-0.2859802,1.1876221-1.4703064s-2.2495422-9.2405396-2.2495422-9.2405396s7.1668091-9.9163208,7.4151611-10.6276245
				C282.189209,376.734314,279.9807739,369.6234741,277.9667969,368.8204651z"/>
			
				<linearGradient id="SVGID_26_" gradientUnits="userSpaceOnUse" x1="276.1394348" y1="375.5541992" x2="270.7063904" y2="351.9898987" gradientTransform="matrix(0.977381 -0.2114863 0.2114863 0.977381 -77.8861694 67.8813248)">
				<stop  offset="0" style="stop-color:#222E51;stop-opacity:0"/>
				<stop  offset="1" style="stop-color:#231F20"/>
			</linearGradient>
			<path fill="url(#SVGID_26_)" d="M277.9667969,368.8204651c-2.0139465-0.8029785-4.1278687-0.1385193-7.1109009,8.7196045
				c-1.8774414,5.5751343-2.6853943,10.2528381-2.3686218,13.4042358s3.6731567,11.5469666,5.2149048,12.3329773
				c1.5417786,0.7860107,1.5823975-1.4975891,1.3304749-2.2734985c-0.2518921-0.7759399-0.1191406-0.2892761-0.1191406-0.2892761
				s1.2694092-0.2859802,1.1876221-1.4703064s-2.9482117-6.9579163-2.2495422-9.2405396s7.1668091-9.9163208,7.4151611-10.6276245
				C282.189209,376.734314,279.9807739,369.6234741,277.9667969,368.8204651z"/>
			
				<linearGradient id="SVGID_27_" gradientUnits="userSpaceOnUse" x1="276.2394409" y1="394.4074707" x2="256.3930054" y2="397.1138" gradientTransform="matrix(0.977381 -0.2114863 0.2114863 0.977381 -77.8861694 67.8813248)">
				<stop  offset="0" style="stop-color:#222E51;stop-opacity:0"/>
				<stop  offset="1" style="stop-color:#231F20"/>
			</linearGradient>
			<path fill="url(#SVGID_27_)" d="M274.9135132,400.7145081c0,0-1.8674316-4.7918701-1.9153137-6.2319336
				c-0.0479126-1.440033,0.8533936-4.4789124,0.8533936-4.4789124l0.4676819,5.7094116L274.9135132,400.7145081z"/>
			<g>
				<path fill="#F6ADA8" d="M276.5451355,382.0661621c0.043396,1.0956726,1.391571,3.1345825,1.7962646,4.5673828
					c0.5512085,1.9513245,0.1201477,2.7255249,0.5260925,3.6005249c0.4059448,0.8749695,0.639801,2.0936584,1.9772339,2.1148987
					c1.3374329,0.0212708,1.5090027-6.8912659,1.5090027-6.8912659s0.3089905-7.0340881-1.5531311-10.3017883
					S276.4425659,379.4782715,276.5451355,382.0661621z"/>
				
					<linearGradient id="SVGID_28_" gradientUnits="userSpaceOnUse" x1="281.2734375" y1="385.3742371" x2="276.9272766" y2="409.9627991" gradientTransform="matrix(0.9831639 -0.1827258 0.1827258 0.9831639 -67.4733353 58.3666344)">
					<stop  offset="0" style="stop-color:#222E51;stop-opacity:0"/>
					<stop  offset="1" style="stop-color:#231F20"/>
				</linearGradient>
				<path fill="url(#SVGID_28_)" d="M276.5451355,382.0661621c0.043396,1.0956726,1.391571,3.1345825,1.7962646,4.5673828
					c0.5512085,1.9513245,0.1201477,2.7255249,0.5260925,3.6005249c0.4059448,0.8749695,0.639801,2.0936584,1.9772339,2.1148987
					c1.3374329,0.0212708,1.5090027-6.8912659,1.5090027-6.8912659s0.3089905-7.0340881-1.5531311-10.3017883
					S276.4425659,379.4782715,276.5451355,382.0661621z"/>
			</g>
		</g>
	</g>
	<g id="Right_arm_1_">
		<path fill="#ED5A76" d="M313.1477051,262.3061523c0,0-0.5154724-14.4337769-7.9042053-14.6056061
			c-7.3887024-0.1718292-12.3717957,18.3858795-13.9182739,23.7126312s-3.5654907,13.5316467-6.1429443,25.9034729
			c-2.5774536,12.3717957-3.7373352,17.5267029,4.76828,19.2020569c8.5056458,1.675354,10.6535034-3.0499878,12.8872986-13.0161743
			C305.0716858,293.536377,313.1477051,262.3061523,313.1477051,262.3061523z"/>
		
			<linearGradient id="SVGID_29_" gradientUnits="userSpaceOnUse" x1="285.381958" y1="272.957428" x2="364.4028931" y2="331.8882751">
			<stop  offset="0" style="stop-color:#222E51;stop-opacity:0"/>
			<stop  offset="1" style="stop-color:#231F20"/>
		</linearGradient>
		<path fill="url(#SVGID_29_)" d="M313.1477051,262.3061523c0,0-0.5154724-14.4337769-7.9042053-14.6056061
			c-7.3887024-0.1718292-8.5915222,26.3759918-10.1380005,31.7027435s-0.5155029,6.1859131-3.0929565,18.5577087
			c-2.5774536,12.3718262-10.5675964,16.8823547-2.0619812,18.5577087
			c8.5056458,1.675354,10.6535034-3.0499878,12.8872986-13.0161743
			C305.0716858,293.536377,313.1477051,262.3061523,313.1477051,262.3061523z"/>
		
			<linearGradient id="SVGID_30_" gradientUnits="userSpaceOnUse" x1="285.6999207" y1="270.5682678" x2="335.6416931" y2="307.8129883">
			<stop  offset="0" style="stop-color:#FFFFFF;stop-opacity:0"/>
			<stop  offset="1" style="stop-color:#FFFFFF"/>
		</linearGradient>
		<path fill="url(#SVGID_30_)" d="M288.1463623,297.9609985c7.9901123-53.6111603,24.4858704-50.088623,17.0971375-50.2604523
			c-7.3887024-0.1718292-12.3717957,18.3858795-13.9182739,23.7126312s-3.5654907,13.5316467-6.1429443,25.9034729
			C282.6048279,309.688446,285.62323,314.8903503,288.1463623,297.9609985z"/>
	</g>
	<g id="Right_forearm_1_">
		<path fill="#ED5A76" d="M292.9833679,298.1413269c0,0-7.4075623-1.7316284-10.1918945,9.2244263
			c-2.7843628,10.9560547-5.2312622,29.3011169-6.8103333,34.6238403s-1.9030151,19.5837402-1.3525696,23.6743774
			l10.4399719,0.9338379c0,0,14.6888428-53.0339355,16.375824-59.0568848
			C303.1313171,301.5180054,292.9833679,298.1413269,292.9833679,298.1413269z"/>
		
			<linearGradient id="SVGID_31_" gradientUnits="userSpaceOnUse" x1="276.5155029" y1="332.804718" x2="355.3257751" y2="330.0634766">
			<stop  offset="0" style="stop-color:#222E51;stop-opacity:0"/>
			<stop  offset="1" style="stop-color:#231F20"/>
		</linearGradient>
		<path fill="url(#SVGID_31_)" d="M292.9833679,298.1413269c0,0-4.372406,4.5861206-7.1567383,15.5421753
			c-4.9549255,37.5050049-9.0210876,19.5886841-6.959137,33.2492371
			c2.0619812,13.6605225-4.7893677,14.6405945-4.2389221,18.7312317l10.4399719,0.9338379
			c0,0,14.6888428-53.0339355,16.375824-59.0568848C303.1313171,301.5180054,292.9833679,298.1413269,292.9833679,298.1413269z"/>
		<g>
			<path fill="#ED5A76" d="M271.4389954,366.418457l2.5058899-16.6217041
				c0.0561218-0.7177734,0.8502197-1.1940613,1.6278992-0.9763794l13.7852783,3.8589783
				c0.7452393,0.2086182,1.112915,0.9561768,0.7737427,1.5731201l-5.4818726,15.5001831
				c-0.2652893,0.4825134-0.8830872,0.7243042-1.4706116,0.5755005l-10.8093262-2.7374573
				C271.7871094,367.4430847,271.3972473,366.9522095,271.4389954,366.418457z"/>
			
				<linearGradient id="SVGID_32_" gradientUnits="userSpaceOnUse" x1="277.1100464" y1="348.9602051" x2="269.3060608" y2="390.8416138" gradientTransform="matrix(1.1175616 0.1511536 -0.154624 0.9889849 28.1889915 -38.0703239)">
				<stop  offset="0" style="stop-color:#222E51;stop-opacity:0"/>
				<stop  offset="1" style="stop-color:#231F20"/>
			</linearGradient>
			<path fill="url(#SVGID_32_)" d="M272.5355225,366.418457l2.5058899-16.6217041
				c0.0561218-0.7177734,0.8502197-1.1940613,1.6278992-0.9763794l12.6887512,3.8589783
				c0.7452393,0.2086182,1.112915,0.9561768,0.7737427,1.5731201l-5.4818726,15.5001831
				c-0.2652893,0.4825134-0.8830872,0.7243042-1.4706116,0.5755005l-9.7127686-2.7374573
				C272.8836365,367.4430847,272.4937744,366.9522095,272.5355225,366.418457z"/>
		</g>
	</g>
	<g id="Left_shoe_1_">
		<polygon id="XMLID_6_" fill="#673655" points="368.5491028,524.2967529 370.8908386,534.0628662 379.5320435,533.3301392 
			377.9926147,522.6130371 		"/>
		
			<linearGradient id="XMLID_12_" gradientUnits="userSpaceOnUse" x1="368.5491028" y1="528.3379517" x2="379.5320435" y2="528.3379517">
			<stop  offset="0" style="stop-color:#222E51;stop-opacity:0"/>
			<stop  offset="1" style="stop-color:#231F20"/>
		</linearGradient>
		<polygon id="XMLID_5_" fill="url(#XMLID_12_)" points="368.5491028,524.2967529 370.8908386,534.0628662 379.5320435,533.3301392 
			377.9926147,522.6130371 		"/>
		<g id="XMLID_1_">
			<path id="XMLID_4_" fill="#673655" d="M408.5578003,549.1970825c-3.6882324,0-40.3321533,0-40.3321533,0
				s-1.6547852-5.5652466-1.3041687-9.4262695c0.1401978-1.4177246,0.4907837-2.9259644,0.8834839-4.2682495
				c0.6730957-2.3528442,1.4865112-4.2078857,1.4865112-4.2078857c6.8295288,1.975769,12.0884094-1.7042847,12.0884094-1.7042847
				s3.5059204,2.0662231,10.1671753,4.9921875c6.6472168,2.9259033,19.2265015,7.1488647,20.6708984,9.2302246
				c0.0140381,0,0.0140381,0.0150757,0.0140381,0.0150757C413.6343689,545.894104,412.2319946,549.1970825,408.5578003,549.1970825z
				"/>
			
				<linearGradient id="XMLID_13_" gradientUnits="userSpaceOnUse" x1="328.6532593" y1="538.157959" x2="329.0592346" y2="556.8320312" gradientTransform="matrix(-1 0 0 1 718.5601807 0)">
				<stop  offset="0" style="stop-color:#222E51;stop-opacity:0"/>
				<stop  offset="1" style="stop-color:#231F20"/>
			</linearGradient>
			<path id="XMLID_3_" fill="url(#XMLID_13_)" d="M412.7294006,545.9242554
				c-0.182312,1.6741333-1.6407471,3.2728271-4.1930847,3.2728271c-3.6882324,0-40.3321228,0-40.3321228,0
				s-0.4767761-1.5986938-0.8554382-3.6951294c-0.3365479-1.7947388-0.6170349-3.9364014-0.448761-5.7311401
				c0.1401978-1.4177246,0.4907837-2.9259644,0.8834839-4.2682495c1.6547852-0.8596802,4.9924316-1.7194214,10.8824158-0.1358032
				c9.3537598,2.5187988,24.0786438,9.5620728,29.8003235,9.3057251c1.5566101-0.0753784,2.7766724-0.4072266,3.7302551-0.8596802
				c0.0140381,0,0.0140381,0.0150757,0.0140381,0.0150757C412.6312256,544.4613037,412.7994995,545.2003174,412.7294006,545.9242554
				z"/>
			<path id="XMLID_2_" fill="#673655" d="M412.7508545,545.9242554c-0.182312,1.6741333-1.6407471,3.2728271-4.1930542,3.2728271
				c-3.6882324,0-40.3321533,0-40.3321533,0s-0.4767456-1.5986938-0.8554077-3.6951294
				c5.8197632,0.2714844,24.4573059,1.1010132,33.1799927,1.3121338
				C406.692627,546.9498901,410.5912476,546.4068604,412.7508545,545.9242554z"/>
		</g>
	</g>
	<g id="Left_thigh_1_">
		<path fill="#F6B042" d="M369.0785828,434.3086243c2.0619812,20.276001-23.1541748,21.779541-27.9654236,6.3147583
			c-4.8112793-15.4647522-20.2330627-55.9738159-16.4527893-71.4385681
			c3.7802734-15.4647827,21.9943237-18.9013672,29.8985291-12.3718262
			c7.9042053,6.5295715,7.0480957,24.8504028,8.5915222,35.3971252
			C365.2124023,406.3002319,367.0166321,414.0325928,369.0785828,434.3086243z"/>
		
			<linearGradient id="SVGID_33_" gradientUnits="userSpaceOnUse" x1="354.0561829" y1="397.3501587" x2="396.7811279" y2="386.9294434">
			<stop  offset="0" style="stop-color:#222E51;stop-opacity:0"/>
			<stop  offset="1" style="stop-color:#231F20"/>
		</linearGradient>
		<path fill="url(#SVGID_33_)" d="M369.0785828,434.3086243c2.0619812,20.276001-3.608429-17.0112305-13.9182739-36.0844421
			s-34.2802124-13.5746155-30.499939-29.0393677c3.7802734-15.4647827,21.9943237-18.9013672,29.8985291-12.3718262
			c7.9042053,6.5295715,7.0480957,24.8504028,8.5915222,35.3971252
			C365.2124023,406.3002319,367.0166321,414.0325928,369.0785828,434.3086243z"/>
		
			<linearGradient id="SVGID_34_" gradientUnits="userSpaceOnUse" x1="347.9586792" y1="419.067627" x2="294.3475037" y2="332.4649658">
			<stop  offset="0" style="stop-color:#222E51;stop-opacity:0"/>
			<stop  offset="1" style="stop-color:#231F20"/>
		</linearGradient>
		<path fill="url(#SVGID_34_)" d="M352.8405762,437.7452393c2.0619812,20.276001-6.9161682,18.342926-11.727417,2.8781433
			c-4.8112793-15.4647522-20.2330627-55.9738159-16.4527893-71.4385681
			c3.7802734-15.4647827-1.3746338-17.0112305,6.5295715-10.4816895
			c7.9042053,6.5295715,12.5466919,26.912384,14.0900879,37.4590759
			C347.3420105,410.2523193,350.7786255,417.4692078,352.8405762,437.7452393z"/>
		
			<linearGradient id="SVGID_35_" gradientUnits="userSpaceOnUse" x1="341.5524597" y1="410.5157471" x2="349.9175415" y2="307.8825684">
			<stop  offset="0" style="stop-color:#222E51;stop-opacity:0"/>
			<stop  offset="1" style="stop-color:#231F20"/>
		</linearGradient>
		<path fill="url(#SVGID_35_)" d="M338.7504883,399.9424744c-10.309845,10.9971619,7.1739197,56.1456909,2.3626709,40.6809082
			c-4.8112793-15.4647522-20.2330627-55.9738159-16.4527893-71.4385681
			c3.7802734-15.4647827,21.9943237-18.9013672,29.8985291-12.3718262
			c7.9042053,6.5295715,7.0480957,24.8504028,8.5915222,35.3971252
			C365.2124023,406.3002319,349.0603027,388.9453125,338.7504883,399.9424744z"/>
	</g>
	<g id="torso_1_">
		<path fill="#ED5A76" d="M306.4463196,247.2240448c0,0-7.2168884,13.5198212-9.2788696,23.1581268
			c-1.7206116,8.0428467,3.0070496,18.3326111,2.2338257,26.0432739
			c-3.039917,30.3137207-12.0496521,51.9093018-13.9353027,66.9157104
			c-0.9396667,7.4780273-0.2730408,29.8026123,0.4465942,30.1101685c1.2887268,0.5507507,27.063324,4.1307068,36.5999146,2.2030334
			c9.5365906-1.9276428,27.2781067-7.0286255,33.4640198-7.3039856c6.1859131-0.2753906,16.4957275-1.101532,16.4957275-1.101532
			s-1.5385742-21.3679199-2.8266602-28.9918823c-2.8244324-16.7171631-11.0567627-43.6183167-13.7120361-51.1834412
			c-3.8661804-11.0152588-5.3267517-15.2377625-5.3267517-15.2377625s7.3768311-33.7872925,2.9211426-50.7618713
			c-1.955658-7.4503632-9.2653809-8.7232819-15.2929382-7.4352875
			C329.9213867,235.4150696,312.2026367,236.5759888,306.4463196,247.2240448z"/>
		
			<linearGradient id="SVGID_36_" gradientUnits="userSpaceOnUse" x1="306.2650452" y1="315.1479187" x2="421.755188" y2="320.3830261">
			<stop  offset="0" style="stop-color:#222E51;stop-opacity:0"/>
			<stop  offset="1" style="stop-color:#231F20"/>
		</linearGradient>
		<path fill="url(#SVGID_36_)" d="M306.789978,253.8864441c1.5033875,5.6794739,14.2371826,11.9082947,15.8084106,17.8703918
			c4.8938293,18.5698242,8.0930786,50.968811-3.0929565,67.357605
			c-14.7774353,21.6506653,28.1802368,18.9013672-5.4985657,29.5548706
			c-35.4613953,11.2173767-28.8139343,24.4744568-28.0942993,24.7820129
			c1.2887268,0.5507507,27.063324,4.1307068,36.5999146,2.2030334c9.5365906-1.9276428,27.2781067-7.0286255,33.4640198-7.3039856
			c6.1859131-0.2753906,16.4957275-1.101532,16.4957275-1.101532s-1.5385742-21.3679199-2.8266602-28.9918823
			c-2.8244324-16.7171631-11.0567627-43.6183167-13.7120361-51.1834412
			c-3.8661804-11.0152588-5.3267517-15.2377625-5.3267517-15.2377625s7.3768311-33.7872925,2.9211426-50.7618713
			c-1.955658-7.4503632-6.3442383-4.2838593-12.3718262-2.9958649
			C332.8424988,239.8545074,303.2319336,240.4449005,306.789978,253.8864441z"/>
		
			<linearGradient id="SVGID_37_" gradientUnits="userSpaceOnUse" x1="288.6684875" y1="316.6096802" x2="419.5924683" y2="315.5787659">
			<stop  offset="0.250761" style="stop-color:#222E51;stop-opacity:0"/>
			<stop  offset="1" style="stop-color:#231F20"/>
		</linearGradient>
		<path fill="url(#SVGID_37_)" d="M329.4716187,258.010376c-1.3746338,15.4647522,3.7802734,30.2421875,3.7802734,59.1097412
			c0,26.2130432,44.3323059,47.7689209,10.6535034,58.4224243c-35.4613953,11.2173767-58.7124634,17.6012268-57.9928284,17.908783
			c1.2887268,0.5507507,27.063324,4.1307068,36.5999146,2.2030334c9.5365906-1.9276428,27.2781067-7.0286255,33.4640198-7.3039856
			c6.1859131-0.2753906,16.4957275-1.101532,16.4957275-1.101532s-1.5385742-21.3679199-2.8266602-28.9918823
			c-2.8244324-16.7171631-11.0567627-43.6183167-13.7120361-51.1834412
			c-3.8661804-11.0152588-5.3267517-15.2377625-5.3267517-15.2377625s7.3768311-33.7872925,2.9211426-50.7618713
			c-1.955658-7.4503632-1.5329895-4.2838593-7.5605469-2.9958649
			C337.6537781,239.8545074,330.846283,242.5456238,329.4716187,258.010376z"/>
		
			<linearGradient id="SVGID_38_" gradientUnits="userSpaceOnUse" x1="307.6113892" y1="320.6099548" x2="236.7715759" y2="315.6758118">
			<stop  offset="0" style="stop-color:#FFFFFF;stop-opacity:0"/>
			<stop  offset="1" style="stop-color:#FFFFFF"/>
		</linearGradient>
		<path fill="url(#SVGID_38_)" d="M306.4463196,247.2240448c0,0-7.2168884,13.5198212-9.2788696,23.1581268
			c-1.7206116,8.0428467,3.0070496,18.3326111,2.2338257,26.0432739
			c-3.039917,30.3137207-12.0496521,51.9093018-13.9353027,66.9157104
			c-0.9396667,7.4780273-0.2730408,29.8026123,0.4465942,30.1101685c1.2887268,0.5507507,0.9450684,0.6489258,2.7492676-22.5482178
			c1.8042297-23.1971436,19.9204712-58.0295105,15.4647827-75.0040588
			c-1.9556885-7.4503784-5.2408447-23.2830505,2.3197021-30.1562805S309.4198914,241.7235413,306.4463196,247.2240448z"/>
		<g>
			<path fill="#ED5A76" d="M371.5271606,374.2141418c0,0,2.9640808,11.2217712,0.9021301,13.7001953
				c-2.0619812,2.4784241-20.7055969,0.7637329-26.6337585,3.242157s-36.0844421,7.7106628-46.6520081,5.5075989
				c-10.5675964-2.2030334-13.9183044-2.4784241-14.6915283-4.6814575
				c-0.7732239-2.203064-2.513031-13.3559875,2.5774536-12.6675415c7.2168884,1.3769226,32.2182617,6.6091614,41.2393494,2.4784241
				C337.289917,377.6628113,371.5271606,374.2141418,371.5271606,374.2141418z"/>
		</g>
	</g>
	<g id="Left_arm_1_">
		<path fill="#ED5A76" d="M346.2704468,272.269165c0,0-3.2195435-10.3902893-3.2242126-18.6404724
			c-0.0035706-6.3274536,7.0913086-15.0833435,12.3937378-9.6408844c2.8344116,2.909256,7.1001587,15.7136383,9.0260925,21.0193024
			c1.9259338,5.3056946,6.4067993,11.6669006,8.2209778,21.0975647c1.473999,7.6622925,5.0511169,24.05896-0.828186,27.5027161
			C365.9795227,317.051178,358.5754395,316.1965332,346.2704468,272.269165z"/>
		
			<linearGradient id="SVGID_39_" gradientUnits="userSpaceOnUse" x1="356.1690979" y1="278.1960144" x2="392.0084229" y2="288.6721191" gradientTransform="matrix(0.9994407 -0.0334406 0.0334406 0.9994407 -9.8028364 11.9311552)">
			<stop  offset="0" style="stop-color:#222E51;stop-opacity:0"/>
			<stop  offset="1" style="stop-color:#231F20"/>
		</linearGradient>
		<path fill="url(#SVGID_39_)" d="M355.1603088,260.0723572c-2.9781799-6.8939972-3.2007141-18.8622284-0.1130676-12.4684296
			c1.9634705,4.0658875,5.2250366,10.5782928,7.7165833,17.6233368c2.2337952,5.8422546,5.9710999,11.0830688,8.118988,20.8774109
			c2.1478882,9.7943726,5.0511169,24.05896-0.828186,27.5027161
			C368.9555359,303.153717,358.1712036,267.0420837,355.1603088,260.0723572z"/>
	</g>
	<g id="bag_1_">
		<path fill="#22AAE2" d="M372.6870422,306.4666138c3.608429,4.1239319,6.1858826,17.183075,6.529541,26.4619141
			c0.3436584,9.2788696,2.4056396,21.6506653,1.7183228,25.0872803c0,0-10.6535034,6.5295715-20.6196899,5.4985962
			c-9.966156-1.0310059-14.0901184,0.6873169-17.1830444-3.0929565c-3.0929565-3.7802734-2.5345154-18.1281433-3.1788635-26.1182556
			c-0.6443787-7.9901428-3.0929565-22.8749695-3.6084595-27.8365784s6.8302612-5.0260315,14.9492798-7.2168884
			C359.4131165,297.0588989,369.0785828,302.3426819,372.6870422,306.4666138z"/>
		
			<linearGradient id="SVGID_40_" gradientUnits="userSpaceOnUse" x1="354.5211792" y1="340.3461304" x2="423.2534485" y2="268.5209045">
			<stop  offset="0" style="stop-color:#222E51;stop-opacity:0"/>
			<stop  offset="1" style="stop-color:#231F20"/>
		</linearGradient>
		<path fill="url(#SVGID_40_)" d="M372.6870422,306.4666138c3.608429,4.1239319,6.1858826,17.183075,6.529541,26.4619141
			c0.3436584,9.2788696,2.4056396,21.6506653,1.7183228,25.0872803c0,0-10.6535034,6.5295715-20.6196899,5.4985962
			c-9.966156-1.0310059,8.9352112-14.1760254,11.555603-31.8316345
			c2.6204224-17.6556091-27.0643921,21.5435486-14.5626221-4.5964661
			c7.5605469-15.8084106-14.1330872-25.6457214-6.0140686-27.8365784
			C359.4131165,297.0588989,369.0785828,302.3426819,372.6870422,306.4666138z"/>
		<path fill="#22AAE2" d="M352.3251038,243.3188629c0,0-11.0830688,14.4337616-11.5985718,28.0943146
			c-0.5155029,13.6605225,1.2028198,37.3731689,1.2028198,37.3731689l-5.3267517-1.8901367
			c0,0-2.8352051-17.6985779-0.7732544-36.5140381c2.0619812-18.8154449,14.9492798-29.8985138,14.9492798-29.8985138
			L352.3251038,243.3188629z"/>
	</g>
	<g id="Left_leg_1_">
		<path fill="#F6B042" d="M363.837738,523.4887085c0,0-16.4957275-64.2646484-20.9633179-76.9801025
			c-4.4675903-12.7154846,1.3746338-18.9013977,8.2478638-21.9943237c6.87323-3.0929565,15.4647522-1.3746643,19.2450256,16.839386
			s10.9971619,77.66745,10.9971619,77.66745L363.837738,523.4887085z"/>
		
			<linearGradient id="SVGID_41_" gradientUnits="userSpaceOnUse" x1="365.7527771" y1="468.6389465" x2="285.5937805" y2="532.3021851">
			<stop  offset="0" style="stop-color:#222E51;stop-opacity:0"/>
			<stop  offset="1" style="stop-color:#231F20"/>
		</linearGradient>
		<path fill="url(#SVGID_41_)" d="M363.837738,523.4887085c0,0-16.4957275-64.2646484-20.9633179-76.9801025
			c-4.4675903-12.7154846,1.3746338-18.9013977,8.2478638-21.9943237c6.87323-3.0929565,3.7802734,23.8844604,7.5605469,42.0984802
			c3.7802734,18.2140503,11.6844788,54.9858093,11.6844788,54.9858093L363.837738,523.4887085z"/>
		<path fill="#F6B042" d="M360.9915771,511.1082153l19.9447021-2.5810852
			c0.5497131-0.071167,1.0524902,0.3182983,1.1210327,0.8683472l1.4015503,11.2481384
			c0.4022827,3.2284546-1.7887573,6.2084351-4.9903259,6.7871704l-9.8225098,1.7755127
			c-2.6264343,0.4747314-5.1777954-1.1449585-5.8656921-3.7238159l-2.6412048-13.18573
			C360.0252686,511.7284241,360.416748,511.1826172,360.9915771,511.1082153z"/>
		
			<linearGradient id="SVGID_42_" gradientUnits="userSpaceOnUse" x1="370.4086609" y1="509.0552368" x2="380.8473816" y2="564.7283936">
			<stop  offset="0" style="stop-color:#222E51;stop-opacity:0"/>
			<stop  offset="0.1238233" style="stop-color:#222C4B;stop-opacity:0.1238233"/>
			<stop  offset="1" style="stop-color:#231F20"/>
		</linearGradient>
		<path fill="url(#SVGID_42_)" d="M360.9915771,511.1082153c0,0,7.6027832-0.6033936,10.585968,6.5562744
			c2.9832153,7.159668,11.8813171,2.979126,11.8813171,2.979126c0.4022827,3.2284546-1.7887573,6.2084351-4.9903259,6.7871704
			l-9.8225098,1.7755127c-2.6264343,0.4747314-5.1777954-1.1449585-5.8656921-3.7238159l-2.6412048-13.18573
			C360.0252686,511.7284241,360.416748,511.1826172,360.9915771,511.1082153z"/>
	</g>
	<g id="Left_hand_1_">
		<path fill="#F6ADA8" d="M357.0934143,275.9237366l-6.1859131-13.2739258c0,0-3.9984131-7.211731-4.6394348-7.9901276
			c-1.2028198-1.460556-4.5534973-1.2887268-6.6154785-1.374649c-2.0619812-0.085907-2.8352051,2.4915466-2.8352051,2.4915466
			s-5.111969,6.1859131-5.111969,7.3887329c0,1.2027893,0.5155029,7.5175781,1.2887268,8.118988
			c0.7732544,0.6014099,1.8901367,1.2457581,2.1478882,0.8161926c0.1279907-0.2133179,1.8042297-5.3267517,1.8042297-5.3267517
			s1.847168,2.8352051,3.522522,4.5105591c0.8822632,0.8822327,4.8128357,3.4715271,7.1309814,5.5415344
			c2.0838928,1.8608398,2.6204224,3.2647705,2.6204224,3.2647705l4.0379944-1.4605408L357.0934143,275.9237366z"/>
		
			<linearGradient id="SVGID_43_" gradientUnits="userSpaceOnUse" x1="348.5275879" y1="267.5292664" x2="390.0082397" y2="293.9881287">
			<stop  offset="0" style="stop-color:#222E51;stop-opacity:0"/>
			<stop  offset="1" style="stop-color:#231F20"/>
		</linearGradient>
		<path fill="url(#SVGID_43_)" d="M357.0934143,275.9237366l-6.1859131-13.2739258c0,0-3.9984131-7.211731-4.6394348-7.9901276
			c-1.2028198-1.460556-3.4151306,3.4151459-3.4151306,3.4151459s9.1285095,8.6559448,8.2693481,11.9636841
			s-5.8406677,4.7173157-3.522522,6.787323c2.0838928,1.8608398,2.6204224,3.2647705,2.6204224,3.2647705l4.0379944-1.4605408
			L357.0934143,275.9237366z"/>
	</g>
	<g id="Left_forearm_1_">
		<path fill="#ED5A76" d="M375.2706604,305.008606c0,0-0.2056274-2.6985168-5.4987793-13.9273376
			c-4.3944397-9.3222961-9.8696899-15.5975952-12.1686401-17.7811584c-0.7696228-0.7309875-0.8490601-1.3893127-2.5149536-0.77771
			c-2.0833435,0.7648926-7.6833496,4.7537231-7.6833496,4.7537231c-0.934906,0.6503296-0.0490112,2.1697693,0.2514648,3.26828
			c1.0520935,3.8465271,4.9332275,15.1808167,7.3988647,23.2043457
			c3.2081604,10.4399109,12.2346497,11.8630981,15.8587646,11.9315796S375.2706604,305.008606,375.2706604,305.008606z"/>
		<path fill="#ED5A76" d="M375.2706604,305.008606c0,0-0.2056274-2.6985168-5.4987793-13.9273376
			c-4.3944397-9.3222961-9.8696899-15.5975952-12.1686401-17.7811584c-0.7696228-0.7309875-0.8490601-1.3893127-2.5149536-0.77771
			c-2.0833435,0.7648926-7.6833496,4.7537231-7.6833496,4.7537231c-0.934906,0.6503296-0.0490112,2.1697693,0.2514648,3.26828
			c1.0520935,3.8465271,4.9332275,15.1808167,7.3988647,23.2043457
			c3.2081604,10.4399109,12.2346497,11.8630981,15.8587646,11.9315796S375.2706604,305.008606,375.2706604,305.008606z"/>
		
			<linearGradient id="SVGID_44_" gradientUnits="userSpaceOnUse" x1="363.504303" y1="295.6997375" x2="325.1001587" y2="332.4285583">
			<stop  offset="0" style="stop-color:#222E51;stop-opacity:0"/>
			<stop  offset="1" style="stop-color:#231F20"/>
		</linearGradient>
		<path fill="url(#SVGID_44_)" d="M375.2706604,305.008606c0,0-1.285553,8.5629272-6.5787048-2.6659241
			c-4.3944092-9.3222656-2.8352051,11.2119446-7.8612366,3.6084595
			c-5.026062-7.6035156-11.3408203-28.9964294-11.5985718-23.8415222
			c-0.2577515,5.1549377,3.3574829,13.6156006,5.8231201,21.6391296
			c3.2081604,10.4399109,12.2346497,11.8630981,15.8587646,11.9315796S375.2706604,305.008606,375.2706604,305.008606z"/>
		
			<linearGradient id="SVGID_45_" gradientUnits="userSpaceOnUse" x1="369.2024536" y1="273.1369629" x2="315.5956421" y2="304.6048584" gradientTransform="matrix(0.997109 -0.0759842 0.0759842 0.997109 -23.1877441 27.8911686)">
			<stop  offset="0" style="stop-color:#222E51;stop-opacity:0"/>
			<stop  offset="1" style="stop-color:#231F20"/>
		</linearGradient>
		<path fill="url(#SVGID_45_)" d="M347.1216736,278.993927c-0.2540283-0.7076111-0.2079773-1.3693848,0.3760071-1.801178
			c2.0942688-1.5485229,7.8559265-5.5540466,9.0802307-4.8452454c0.8537903,0.6524048,5.527832,5.4009399,6.7013855,7.8934631
			c0.6168213,1.3100891-0.0109253,1.2546387-1.6128845,2.2814331c-1.6019592,1.026825-10.4356079,5.9499207-11.5321655,5.1287537
			C349.3559265,287.0682983,347.8858032,281.1226196,347.1216736,278.993927z"/>
	</g>
	<g id="Head_1_">
		<path fill="#F6B042" d="M317.099823,183.6077118c6.959137-1.5464783,11.4267273-1.5464783,17.0971375,1.2887268
			s9.2788696,13.6605377,9.2788696,17.2689819s5.7563171,12.5436401,6.0140686,15.8943329s2.3197021,0.6443634,4.8971558,7.8612518
			c2.5774841,7.2168884,14.3478699,29.5119171,8.4197083,27.9654388s-17.5267334-8.4197083-22.4238892-5.5844879
			c-4.8971863,2.8352051-18.2999573,7.2168732-24.2281189,7.2168732s-12.4577332-7.3027954-14.4337769-5.7563171
			s-5.0690002,6.6154785-5.7563171,7.5605469c-0.6873474,0.9450684-2.3197327-2.4915466-2.2337952-5.0690002
			c0.085907-2.5774689,4.0165405-9.0640717,4.0165405-9.0640717s-2.5559998-1.0739441-1.0954285-4.3387299
			c1.4605408-3.2647705,3.608429-6.6154785,3.9306335-6.5510406c-0.9665527-0.6443634-3.9306335-6.0785065-3.4151611-7.5390625
			c0.5155029-1.460556,2.6633911-9.794342,4.8112793-13.8323669s1.9127197-13.7050629,4.4675903-17.3549042
			C309.4533691,189.2781219,310.140686,185.1541901,317.099823,183.6077118z"/>
		
			<linearGradient id="SVGID_46_" gradientUnits="userSpaceOnUse" x1="326.5754395" y1="232.5881195" x2="224.311554" y2="170.6570129">
			<stop  offset="0" style="stop-color:#222E51;stop-opacity:0"/>
			<stop  offset="0.2666956" style="stop-color:#222C4C;stop-opacity:0.1866535"/>
			<stop  offset="0.5865706" style="stop-color:#22283D;stop-opacity:0.4105259"/>
		</linearGradient>
		<path fill="url(#SVGID_46_)" d="M317.099823,183.6077118c5.6995544-1.266571,2.6480103,33.1812134-1.486969,46.2382202
			c-0.9138184,2.8855591-7.8756409,0.4773102-5.7277527,2.9832001c2.1479187,2.5058746,5.0117798,6.0857086,3.579834,5.4890747
			c-1.4319153-0.5966339-17.5411682-7.0403442-11.4554443,4.0571442
			c6.0856934,11.0974731,21.0016785,9.3075562,38.3733826,5.9266052
			c-4.8971863,2.8352051-18.2999573,7.2168732-24.2281189,7.2168732s-12.4577332-7.3027954-14.4337769-5.7563171
			s-5.0690002,6.6154785-5.7563171,7.5605469c-0.6873474,0.9450684-2.3197327-2.4915466-2.2337952-5.0690002
			c0.085907-2.5774689,4.0165405-9.0640717,4.0165405-9.0640717s-2.5559998-1.0739441-1.0954285-4.3387299
			c1.4605408-3.2647705,3.608429-6.6154785,3.9306335-6.5510406c-0.9665527-0.6443634-3.9306335-6.0785065-3.4151611-7.5390625
			c0.5155029-1.460556,2.6633911-9.794342,4.8112793-13.8323669s1.9127197-13.7050629,4.4675903-17.3549042
			C309.4533691,189.2781219,310.140686,185.1541901,317.099823,183.6077118z"/>
		
			<linearGradient id="SVGID_47_" gradientUnits="userSpaceOnUse" x1="329.2999878" y1="238.5147095" x2="327.925354" y2="329.9286194">
			<stop  offset="0" style="stop-color:#222E51;stop-opacity:0"/>
			<stop  offset="1" style="stop-color:#231F20"/>
		</linearGradient>
		<path fill="url(#SVGID_47_)" d="M339.4378052,241.1709747c6.959137-1.5464783-21.3070068,12.3718109-2.7492981,5.1549225
			s12.5436401-22.9179077,12.8013916-28.2661438c0.4510498,3.4795685,2.3197021,0.6443634,4.8971558,7.8612518
			c2.5774841,7.2168884,14.3478699,29.5119171,8.4197083,27.9654388s-17.5267334-8.4197083-22.4238892-5.5844879
			c-4.8971863,2.8352051-18.2999573,7.2168732-24.2281189,7.2168732s-12.4577332-7.3027954-14.4337769-5.7563171
			s-5.0690002,6.6154785-5.7563171,7.5605469c-0.6873474,0.9450684-2.3197327-2.4915466-2.2337952-5.0690002
			c0.085907-2.5774689,4.0165405-9.0640717,4.0165405-9.0640717s-2.5559998-1.0739441-1.0954285-4.3387299
			c1.4605408-3.2647705,3.608429-6.6154785,3.9306335-6.5510406c-0.9665527-0.6443634,1.0524597,16.7749634,15.829895,15.743988
			C331.1899414,247.0132141,332.4786682,242.717453,339.4378052,241.1709747z"/>
		
			<linearGradient id="SVGID_48_" gradientUnits="userSpaceOnUse" x1="317.8861084" y1="231.8354492" x2="313.9093323" y2="184.7419434" gradientTransform="matrix(0.9931681 0.1166928 -0.1166928 0.9931681 31.5092602 -35.6402435)">
			<stop  offset="0" style="stop-color:#222E51;stop-opacity:0"/>
			<stop  offset="1" style="stop-color:#231F20"/>
		</linearGradient>
		<path fill="url(#SVGID_48_)" d="M328.5002441,209.4408875c0,0,2.9888,4.5167542-4.6538391,13.9475861
			s-13.7563782,8.8509521-11.3027954,3.4298096C316.7411804,217.5438843,328.5002441,209.4408875,328.5002441,209.4408875z"/>
		<path fill="#F6ADA8" d="M325.6913452,185.9274292c0,0-12.3717957-1.5464783-15.9802551,6.959137
			c-3.608429,8.5056152-3.8661804,21.1351776,0,28.6098022c3.8662109,7.4746399,6.2718201,6.5295715,13.230957,0.3436584
			C329.9012146,215.654129,339.8673706,191.8555908,325.6913452,185.9274292z"/>
		
			<linearGradient id="SVGID_49_" gradientUnits="userSpaceOnUse" x1="318.7786255" y1="205.5183868" x2="337.601532" y2="145.2402649">
			<stop  offset="0" style="stop-color:#222E51;stop-opacity:0"/>
			<stop  offset="1" style="stop-color:#231F20"/>
		</linearGradient>
		<path fill="url(#SVGID_49_)" d="M325.6913452,185.9274292c0,0-12.3717957-1.5464783-15.9802551,6.959137
			c-3.608429,8.5056152,7.6464844-0.4295807,11.5126648,7.0450592c3.8661804,7.4746246-5.2408447,28.0943146,1.7182922,21.9084015
			C329.9012146,215.654129,339.8673706,191.8555908,325.6913452,185.9274292z"/>
		<path fill="#F6B042" d="M332.7364197,212.9048309c0,0-3.8662109-17.4408112-17.3549194-18.1281281
			c-6.0930176-0.1125641-6.5305481,2.0353394-7.703949,1.5580139c-1.7900696-0.7281647,5.1407776-13.953598,14.6201477-12.6840515
			C336.7314758,185.5837708,335.4856873,209.9837189,332.7364197,212.9048309z"/>
		
			<linearGradient id="SVGID_50_" gradientUnits="userSpaceOnUse" x1="331.0481567" y1="187.0404205" x2="304.0959778" y2="236.7425842">
			<stop  offset="0" style="stop-color:#222E51;stop-opacity:0"/>
			<stop  offset="1" style="stop-color:#231F20"/>
		</linearGradient>
		<path fill="url(#SVGID_50_)" d="M330.3697205,189.6324768c-3.818512-8.1142883-11.6951904-6.3330231-9.6614685-6.4543457
			c5.7976685-0.3458252,18.0939636,4.2268982,15.5482788,16.0005646c-1.352356,6.1255035-3.8184814,7.8756409-4.9806824,9.0867157
			C332.4380493,201.9630127,334.1882019,197.7467651,330.3697205,189.6324768z"/>
		
			<linearGradient id="SVGID_51_" gradientUnits="userSpaceOnUse" x1="304.2266541" y1="236.5002594" x2="288.7294922" y2="201.4411163">
			<stop  offset="0" style="stop-color:#222E51;stop-opacity:0"/>
			<stop  offset="1" style="stop-color:#231F20"/>
		</linearGradient>
		<path fill="url(#SVGID_51_)" d="M297.1468811,225.4009705c0,0,0.6861267,6.1006317,7.7529602,10.701004
			C312.0900574,240.7826538,299.7124329,230.6961517,297.1468811,225.4009705z"/>
		
			<linearGradient id="SVGID_52_" gradientUnits="userSpaceOnUse" x1="323.8543396" y1="232.9140778" x2="383.1008911" y2="188.7942963">
			<stop  offset="0" style="stop-color:#222E51;stop-opacity:0"/>
			<stop  offset="0.2666956" style="stop-color:#222C4C;stop-opacity:0.1866535"/>
			<stop  offset="0.5865706" style="stop-color:#22283D;stop-opacity:0.4105259"/>
		</linearGradient>
		<path fill="url(#SVGID_52_)" d="M346.0178833,212.7047577c0.1925964-0.8526764-0.9515076-1.3297882-1.3988342-0.5787811
			c-2.9741821,4.993042-8.9114685,12.686203-18.0112305,14.5061493
			C313.5595703,229.2417755,339.5256653,241.4501953,346.0178833,212.7047577z"/>
		
			<linearGradient id="SVGID_53_" gradientUnits="userSpaceOnUse" x1="364.3664856" y1="224.4415436" x2="387.7302246" y2="211.7349396" gradientTransform="matrix(0.732048 -0.6812531 0.6812531 0.732048 -78.9568329 298.504364)">
			<stop  offset="0" style="stop-color:#222E51;stop-opacity:0"/>
			<stop  offset="0.3646526" style="stop-color:#222C4C;stop-opacity:0.1866535"/>
			<stop  offset="0.8020174" style="stop-color:#22283D;stop-opacity:0.4105259"/>
		</linearGradient>
		<path fill="url(#SVGID_53_)" d="M343.4204407,203.5558777c0,0,2.4970093,4.951355-0.7608032,7.5447388
			C337.2614441,215.3978424,343.4204407,203.5558777,343.4204407,203.5558777z"/>
		
			<linearGradient id="SVGID_54_" gradientUnits="userSpaceOnUse" x1="343.2053223" y1="230.7337646" x2="366.7079773" y2="206.3201447">
			<stop  offset="0" style="stop-color:#222E51;stop-opacity:0"/>
			<stop  offset="0.2666956" style="stop-color:#222C4C;stop-opacity:0.1866535"/>
			<stop  offset="0.5865706" style="stop-color:#22283D;stop-opacity:0.4105259"/>
		</linearGradient>
		<path fill="url(#SVGID_54_)" d="M349.7476501,220.3794708c0,0,3.4795532,5.1549225-3.0929565,10.0520935
			C340.0821533,235.3287354,348.2011719,227.0808716,349.7476501,220.3794708z"/>
	</g>
</g>
</svg>
